SplineFontDB: 3.0
FontName: Neuton-SC-Regular
FullName: Neuton SC Regular
FamilyName: Neuton SC
Weight: Regular
Copyright: Copyright (c) 2010, 2011 Brian M Zick (http://21326.info/), \nwith Reserved Font Name 'Neuton SC'.\n\nThis Font Software is licensed under the SIL Open Font License, Version 1.1.\nThis license is available with a FAQ at: http://scripts.sil.org/OFL\n   WITHOUT WARRANTIES OR CONDITIONS OF ANY KIND, either express or implied.\n   See the License for the specific language governing permissions and\n   limitations under the License.
Version: 1.46
ItalicAngle: 0
UnderlinePosition: -361
UnderlineWidth: 0
Ascent: 1638
Descent: 410
LayerCount: 2
Layer: 0 0 "Back"  1
Layer: 1 0 "Fore"  0
FSType: 1
OS2Version: 1
OS2_WeightWidthSlopeOnly: 0
OS2_UseTypoMetrics: 0
CreationTime: 1305772905
ModificationTime: 1333038477
PfmFamily: 17
TTFWeight: 500
TTFWidth: 5
LineGap: 0
VLineGap: 0
OS2TypoAscent: 2106
OS2TypoAOffset: 0
OS2TypoDescent: -485
OS2TypoDOffset: 0
OS2TypoLinegap: 0
OS2WinAscent: 2106
OS2WinAOffset: 0
OS2WinDescent: 485
OS2WinDOffset: 0
HheadAscent: 2106
HheadAOffset: 0
HheadDescent: -485
HheadDOffset: 0
OS2SubXSize: 1095
OS2SubYSize: 1179
OS2SubXOff: 0
OS2SubYOff: 235
OS2SupXSize: 1095
OS2SupYSize: 1179
OS2SupXOff: 0
OS2SupYOff: 809
OS2StrikeYSize: 84
OS2StrikeYPos: 436
OS2Vendor: 'PfEd'
OS2CodePages: a00000b3.00000000
Lookup: 3 0 0 "'salt' Stylistic Alternates"  {"Alternate Substitution in Latin lookup 0-1"  } ['salt' ('DFLT' <'dflt' > 'latn' <'dflt' > ) ]
MarkAttachClasses: 1
DEI: 91125
LangName: 1033 "" "" "" "" "" "" "" "" "" "Brian M Zick" "" "" "http://21326.info/" "Copyright (c) 2010, 2011 Brian M Zick (http://21326.info/),+AAoA-with Reserved Font Name +ACIA-Neuton+ACIA.+AAoACgAA-This Font Software is licensed under the SIL Open Font License, Version 1.1.+AAoA-This license is copied below, and is also available with a FAQ at:+AAoA-http://scripts.sil.org/OFL+AAoACgAK" "http://scripts.sil.org/OFL" 
Encoding: UnicodeBmp
Compacted: 1

StartChar: A
Encoding: 65 65 0
Width: 1278
VWidth: 1691
Flags: HMW
LayerCount: 2
Fore
SplineSet
406 534 m 1
 758 534 l 1
 592 1034 l 1
 406 534 l 1
-37 0 m 1
 -28 74 l 1
 121 129 l 1
 559 1237 l 1
 710 1268 l 1
 1100 124 l 1
 1237 80 l 1
 1228 0 l 1
 713 0 l 1
 725 74 l 1
 896 129 l 1
 787 432 l 1
 368 432 l 1
 256 124 l 1
 442 80 l 1
 431 0 l 1
 -37 0 l 1
EndSplineSet
Colour: ffffff
EndChar

StartChar: AE
Encoding: 198 198 1
Width: 1684
VWidth: 0
Flags: HMW
LayerCount: 2
Fore
SplineSet
510 568 m 1
 817 568 l 1
 817 1058 l 1
 510 568 l 1
-40 1 m 1
 -31 76 l 1
 105 131 l 1
 738 1126 l 1
 524 1168 l 1
 534 1244 l 1
 1596 1244 l 1
 1564 927 l 1
 1478 940 l 1
 1436 1152 l 1
 998 1152 l 1
 998 679 l 1
 1257 679 l 1
 1299 802 l 1
 1394 810 l 1
 1360 424 l 1
 1275 409 l 1
 1241 586 l 1
 998 586 l 1
 998 96 l 1
 1462 96 l 1
 1563 329 l 1
 1643 313 l 1
 1613 0 l 1
 642 0 l 1
 650 74 l 1
 817 121 l 1
 817 472 l 1
 458 472 l 1
 240 126 l 1
 428 83 l 1
 415 1 l 1
 -40 1 l 1
EndSplineSet
Colour: ffffff
EndChar

StartChar: Aacute
Encoding: 193 193 2
Width: 1234
VWidth: 0
Flags: HMW
LayerCount: 2
Fore
SplineSet
593 1385 m 1
 716 1710 l 1
 827 1670 l 1
 643 1354 l 1
 593 1385 l 1
406 534 m 1
 758 534 l 1
 592 1034 l 1
 406 534 l 1
-37 0 m 1
 -28 74 l 1
 121 129 l 1
 559 1237 l 1
 710 1268 l 1
 1100 124 l 1
 1237 80 l 1
 1228 0 l 1
 713 0 l 1
 725 74 l 1
 896 129 l 1
 787 432 l 1
 368 432 l 1
 256 124 l 1
 442 80 l 1
 431 0 l 1
 -37 0 l 1
EndSplineSet
Colour: ffffff
EndChar

StartChar: Acircumflex
Encoding: 194 194 3
Width: 1234
VWidth: 0
Flags: HMW
LayerCount: 2
Fore
SplineSet
443 1392 m 1
 611 1572 l 1
 666 1585 l 1
 844 1400 l 1
 794 1364 l 1
 632 1472 l 1
 621 1472 l 1
 480 1361 l 1
 443 1392 l 1
406 534 m 1
 758 534 l 1
 592 1034 l 1
 406 534 l 1
-37 0 m 1
 -28 74 l 1
 121 129 l 1
 559 1237 l 1
 710 1268 l 1
 1100 124 l 1
 1237 80 l 1
 1228 0 l 1
 713 0 l 1
 725 74 l 1
 896 129 l 1
 787 432 l 1
 368 432 l 1
 256 124 l 1
 442 80 l 1
 431 0 l 1
 -37 0 l 1
EndSplineSet
Colour: ffffff
EndChar

StartChar: Adieresis
Encoding: 196 196 4
Width: 1234
VWidth: 0
Flags: HMW
LayerCount: 2
Fore
SplineSet
690 1453 m 0
 690 1500 733 1530 773 1530 c 0
 817 1530 861 1499 861 1453 c 0
 861 1404 817 1373 773 1373 c 0
 730 1373 690 1404 690 1453 c 0
423 1453 m 0
 423 1500 466 1530 506 1530 c 0
 550 1530 592 1499 592 1453 c 0
 592 1404 550 1373 506 1373 c 0
 463 1373 423 1404 423 1453 c 0
406 534 m 1
 758 534 l 1
 592 1034 l 1
 406 534 l 1
-37 0 m 1
 -28 74 l 1
 121 129 l 1
 559 1237 l 1
 710 1268 l 1
 1100 124 l 1
 1237 80 l 1
 1228 0 l 1
 713 0 l 1
 725 74 l 1
 896 129 l 1
 787 432 l 1
 368 432 l 1
 256 124 l 1
 442 80 l 1
 431 0 l 1
 -37 0 l 1
EndSplineSet
Colour: ffffff
EndChar

StartChar: Agrave
Encoding: 192 192 5
Width: 2048
VWidth: 0
Flags: HM
LayerCount: 2
Fore
SplineSet
436 1664 m 1
 552 1702 l 1
 684 1368 l 1
 627 1334 l 1
 436 1664 l 1
406 534 m 1
 758 534 l 1
 592 1034 l 1
 406 534 l 1
-37 0 m 1
 -28 74 l 1
 121 129 l 1
 559 1237 l 1
 710 1268 l 1
 1100 124 l 1
 1237 80 l 1
 1228 0 l 1
 713 0 l 1
 725 74 l 1
 896 129 l 1
 787 432 l 1
 368 432 l 1
 256 124 l 1
 442 80 l 1
 431 0 l 1
 -37 0 l 1
EndSplineSet
Colour: ffffff
EndChar

StartChar: Aring
Encoding: 197 197 6
Width: 1234
VWidth: 0
Flags: HMW
LayerCount: 2
Fore
SplineSet
552 1543 m 0
 552 1482 583 1415 647 1415 c 0
 701 1415 734 1456 734 1529 c 0
 734 1591 698 1656 636 1656 c 0
 577 1656 552 1599 552 1543 c 0
480 1532 m 0
 480 1624 556 1704 649 1704 c 0
 745 1704 804 1635 804 1542 c 0
 804 1452 738 1367 636 1367 c 0
 544 1367 480 1430 480 1532 c 0
406 534 m 1
 758 534 l 1
 592 1034 l 1
 406 534 l 1
-37 0 m 1
 -28 74 l 1
 121 129 l 1
 559 1237 l 1
 710 1268 l 1
 1100 124 l 1
 1237 80 l 1
 1228 0 l 1
 713 0 l 1
 725 74 l 1
 896 129 l 1
 787 432 l 1
 368 432 l 1
 256 124 l 1
 442 80 l 1
 431 0 l 1
 -37 0 l 1
EndSplineSet
Colour: ffffff
EndChar

StartChar: Atilde
Encoding: 195 195 7
Width: 1234
VWidth: 0
Flags: HMW
LayerCount: 2
Fore
SplineSet
406 1383 m 1
 406 1383 440 1526 529 1526 c 0
 533 1526 539 1527 543 1526 c 2
 764 1496 l 1
 768 1496 l 2
 793 1496 825 1536 825 1536 c 1
 872 1535 l 1
 872 1535 835 1391 743 1391 c 0
 739 1391 734 1391 730 1392 c 2
 507 1423 l 1
 504 1423 l 2
 476 1423 445 1376 445 1376 c 1
 406 1383 l 1
406 534 m 1
 758 534 l 1
 592 1034 l 1
 406 534 l 1
-37 0 m 1
 -28 74 l 1
 121 129 l 1
 559 1237 l 1
 710 1268 l 1
 1100 124 l 1
 1237 80 l 1
 1228 0 l 1
 713 0 l 1
 725 74 l 1
 896 129 l 1
 787 432 l 1
 368 432 l 1
 256 124 l 1
 442 80 l 1
 431 0 l 1
 -37 0 l 1
EndSplineSet
Colour: ffffff
EndChar

StartChar: B
Encoding: 66 66 8
Width: 1127
VWidth: 1691
Flags: HMW
LayerCount: 2
Fore
SplineSet
420 688 m 1
 678 688 l 1
 764 724 808 795 808 909 c 0
 808 1033 743 1171 500 1171 c 0
 476 1171 447 1168 420 1164 c 1
 420 688 l 1
420 96 m 1
 640 96 l 2
 814 96 904 218 904 347 c 0
 904 471 818 605 643 605 c 2
 420 605 l 1
 420 96 l 1
50 0 m 1
 61 74 l 1
 228 121 l 1
 228 1104 l 1
 57 1134 l 1
 67 1211 l 1
 212 1232 382 1257 559 1257 c 0
 869 1257 996 1118 996 967 c 0
 996 863 947 736 790 679 c 1
 790 672 l 1
 995 661 1100 512 1100 380 c 0
 1100 192 970 0 568 0 c 2
 50 0 l 1
EndSplineSet
Colour: ffffff
EndChar

StartChar: C
Encoding: 67 67 9
Width: 1111
VWidth: 1691
Flags: HMW
LayerCount: 2
Fore
SplineSet
61 589 m 0
 61 884 246 1269 704 1269 c 0
 836 1269 970 1242 1066 1169 c 1
 1035 837 l 1
 947 850 l 1
 905 1070 l 1
 859 1129 776 1174 647 1174 c 0
 439 1174 275 980 275 658 c 0
 275 299 491 111 728 111 c 0
 862 111 992 182 1078 261 c 1
 1113 185 l 1
 1034 89 859 -24 651 -24 c 0
 344 -24 61 190 61 589 c 0
EndSplineSet
Colour: ffffff
EndChar

StartChar: Ccedilla
Encoding: 199 199 10
Width: 2048
VWidth: 0
Flags: HM
LayerCount: 2
Fore
SplineSet
61 589 m 0
 61 884 247 1269 705 1269 c 0
 837 1269 970 1242 1066 1169 c 1
 1035 837 l 1
 947 850 l 1
 906 1070 l 1
 860 1129 776 1174 647 1174 c 0
 439 1174 275 980 275 658 c 0
 275 299 492 111 729 111 c 0
 863 111 992 182 1078 261 c 1
 1114 185 l 1
 1047 104 910 9 743 -18 c 1
 703 -76 l 1
 740 -109 792 -160 792 -227 c 0
 792 -306 708 -355 592 -389 c 1
 572 -331 l 1
 629 -312 658 -278 658 -248 c 0
 658 -214 621 -172 585 -138 c 1
 663 -24 l 1
 652 -24 l 2
 345 -24 61 190 61 589 c 0
EndSplineSet
Colour: ffffff
EndChar

StartChar: D
Encoding: 68 68 11
Width: 1327
VWidth: 1691
Flags: HMW
LayerCount: 2
Fore
SplineSet
424 104 m 1
 569 104 l 2
 924 104 1093 331 1093 598 c 0
 1093 905 914 1155 546 1155 c 0
 506 1155 464 1155 424 1151 c 1
 424 104 l 1
47 0 m 1
 61 74 l 1
 233 129 l 1
 233 1103 l 1
 61 1133 l 1
 70 1209 l 1
 267 1240 438 1258 583 1258 c 0
 1145 1258 1304 961 1304 653 c 0
 1304 311 1053 0 541 0 c 2
 47 0 l 1
EndSplineSet
Colour: ffffff
EndChar

StartChar: E
Encoding: 69 69 12
Width: 1075
VWidth: 1691
Flags: HMW
LayerCount: 2
Fore
SplineSet
50 1168 m 1
 61 1244 l 1
 1056 1244 l 1
 1025 924 l 1
 938 937 l 1
 897 1152 l 1
 426 1152 l 1
 426 676 l 1
 716 676 l 1
 758 796 l 1
 853 810 l 1
 819 421 l 1
 734 408 l 1
 700 583 l 1
 426 583 l 1
 426 96 l 1
 921 96 l 1
 1019 326 l 1
 1102 313 l 1
 1072 0 l 1
 57 0 l 1
 65 74 l 1
 232 121 l 1
 232 1126 l 1
 50 1168 l 1
EndSplineSet
Colour: ffffff
EndChar

StartChar: Eacute
Encoding: 201 201 13
Width: 1142
VWidth: 0
Flags: HMW
LayerCount: 2
Fore
SplineSet
517 1385 m 1
 640 1710 l 1
 751 1670 l 1
 568 1354 l 1
 517 1385 l 1
50 1168 m 1
 61 1244 l 1
 1056 1244 l 1
 1025 924 l 1
 938 937 l 1
 897 1152 l 1
 426 1152 l 1
 426 676 l 1
 716 676 l 1
 758 796 l 1
 853 810 l 1
 819 421 l 1
 734 408 l 1
 700 583 l 1
 426 583 l 1
 426 96 l 1
 921 96 l 1
 1019 326 l 1
 1102 313 l 1
 1072 0 l 1
 57 0 l 1
 65 74 l 1
 232 121 l 1
 232 1126 l 1
 50 1168 l 1
EndSplineSet
Colour: ffffff
EndChar

StartChar: Ecircumflex
Encoding: 202 202 14
Width: 1142
VWidth: 0
Flags: HMW
LayerCount: 2
Fore
SplineSet
406 1387 m 1
 574 1566 l 1
 629 1581 l 1
 807 1395 l 1
 758 1358 l 1
 595 1468 l 1
 584 1468 l 1
 445 1357 l 1
 406 1387 l 1
75 1168 m 1
 86 1244 l 1
 1081 1244 l 1
 1050 924 l 1
 963 937 l 1
 922 1152 l 1
 451 1152 l 1
 451 676 l 1
 741 676 l 1
 783 796 l 1
 878 810 l 1
 844 421 l 1
 759 408 l 1
 725 583 l 1
 451 583 l 1
 451 96 l 1
 946 96 l 1
 1044 326 l 1
 1127 313 l 1
 1097 0 l 1
 82 0 l 1
 90 74 l 1
 257 121 l 1
 257 1126 l 1
 75 1168 l 1
EndSplineSet
Colour: ffffff
EndChar

StartChar: Edieresis
Encoding: 203 203 15
Width: 1142
VWidth: 0
Flags: HMW
LayerCount: 2
Fore
SplineSet
647 1453 m 0
 647 1500 690 1530 730 1530 c 0
 774 1530 818 1499 818 1453 c 0
 818 1404 774 1373 730 1373 c 0
 687 1373 647 1404 647 1453 c 0
380 1453 m 0
 380 1500 423 1530 463 1530 c 0
 507 1530 549 1499 549 1453 c 0
 549 1404 507 1373 463 1373 c 0
 420 1373 380 1404 380 1453 c 0
50 1168 m 1
 61 1244 l 1
 1056 1244 l 1
 1025 924 l 1
 938 937 l 1
 897 1152 l 1
 426 1152 l 1
 426 676 l 1
 716 676 l 1
 758 796 l 1
 853 810 l 1
 819 421 l 1
 734 408 l 1
 700 583 l 1
 426 583 l 1
 426 96 l 1
 921 96 l 1
 1019 326 l 1
 1102 313 l 1
 1072 0 l 1
 57 0 l 1
 65 74 l 1
 232 121 l 1
 232 1126 l 1
 50 1168 l 1
EndSplineSet
Colour: ffffff
EndChar

StartChar: Egrave
Encoding: 200 200 16
Width: 1142
VWidth: 0
Flags: HMW
LayerCount: 2
Fore
SplineSet
443 1664 m 1
 559 1702 l 1
 691 1368 l 1
 633 1334 l 1
 443 1664 l 1
50 1168 m 1
 61 1244 l 1
 1056 1244 l 1
 1025 924 l 1
 938 937 l 1
 897 1152 l 1
 426 1152 l 1
 426 676 l 1
 716 676 l 1
 758 796 l 1
 853 810 l 1
 819 421 l 1
 734 408 l 1
 700 583 l 1
 426 583 l 1
 426 96 l 1
 921 96 l 1
 1019 326 l 1
 1102 313 l 1
 1072 0 l 1
 57 0 l 1
 65 74 l 1
 232 121 l 1
 232 1126 l 1
 50 1168 l 1
EndSplineSet
Colour: ffffff
EndChar

StartChar: Eth
Encoding: 208 208 17
Width: 1374
VWidth: 0
Flags: HMW
LayerCount: 2
Fore
SplineSet
424 104 m 1
 636 104 l 2
 965 104 1103 342 1103 598 c 0
 1103 905 918 1157 546 1157 c 0
 506 1157 464 1155 424 1151 c 1
 424 672 l 1
 682 693 l 1
 670 602 l 1
 424 581 l 1
 424 104 l 1
47 0 m 1
 61 74 l 1
 233 129 l 1
 233 569 l 1
 53 555 l 1
 64 647 l 1
 233 660 l 1
 233 1104 l 1
 61 1134 l 1
 70 1211 l 1
 267 1242 438 1260 583 1260 c 0
 1145 1260 1317 966 1317 658 c 0
 1317 332 1054 0 560 0 c 2
 47 0 l 1
EndSplineSet
Colour: ffffff
EndChar

StartChar: Euro
Encoding: 8364 8364 18
Width: 1161
VWidth: 0
Flags: HMW
LayerCount: 2
Back
SplineSet
-43.7471 649.094 m 1
 -41.7129 732.52 l 1
 956.344 732.52 l 1
 940.065 649.094 l 1
 -43.7471 649.094 l 1
-35.6084 868.849 m 1
 -33.5742 951.257 l 1
 1014.33 951.257 l 1
 998.057 868.849 l 1
 -35.6084 868.849 l 1
178.043 732.52 m 0
 178.043 1205.6 394.746 1594.25 861.727 1594.25 c 0
 1028.58 1594.25 1124.21 1560.67 1245.28 1469.11 c 1
 1204.59 1045.87 l 1
 1149.65 1056.05 l 1
 1112 1381.61 l 1
 1062.15 1466.05 998.057 1512.85 856.641 1512.85 c 0
 515.814 1512.85 331.669 1227.99 331.669 772.196 c 0
 331.669 289.956 536.163 53.9219 854.604 53.9219 c 0
 933.961 53.9219 1047.91 100.722 1131.33 215.686 c 1
 1170 542.268 l 1
 1225.95 549.389 l 1
 1265.63 129.209 l 1
 1118.11 24.417 996.022 -31.5391 790.509 -31.5391 c 0
 431.372 -31.5391 178.043 269.607 178.043 732.52 c 0
EndSplineSet
Fore
SplineSet
11 487 m 1
 20 586 l 1
 160.55 586 l 1
 217.404 791.704 389.204 947 638 947 c 0
 795 947 876 880 876 880 c 1
 855 602 l 1
 757 615 l 1
 735 775 l 1
 715 816 669 852 568 852 c 0
 446.443 852 376.892 776.099 357.58 586 c 1
 665 586 l 1
 644 487 l 1
 352.179 487 l 1
 352.06 479.144 352 471.145 352 463 c 0
 352 444.985 352.793 427.652 354.321 411 c 1
 626 411 l 1
 605 312 l 1
 374.078 312 l 1
 419.338 172.223 527.46 103 635 103 c 0
 780 103 851 161 886 197 c 1
 929 120 l 1
 905 75 794 -24 586 -24 c 0
 361.311 -24 193.988 89.2615 150.888 312 c 1
 11 312 l 1
 21 411 l 1
 140.302 411 l 1
 140.101 417.919 140 424.919 140 432 c 0
 140 450.528 140.85 468.881 142.529 487 c 1
 11 487 l 1
EndSplineSet
Colour: ffffff
EndChar

StartChar: F
Encoding: 70 70 19
Width: 1028
VWidth: 1691
Flags: HMW
LayerCount: 2
Fore
SplineSet
50 1168 m 1
 61 1244 l 1
 1054 1244 l 1
 1013 922 l 1
 925 936 l 1
 891 1152 l 1
 426 1152 l 1
 426 670 l 1
 713 670 l 1
 755 790 l 1
 845 804 l 1
 818 412 l 1
 730 398 l 1
 700 578 l 1
 426 578 l 1
 423 122 l 1
 661 83 l 1
 648 0 l 1
 57 0 l 1
 65 74 l 1
 232 121 l 1
 232 1126 l 1
 50 1168 l 1
EndSplineSet
Colour: ffffff
EndChar

StartChar: G
Encoding: 71 71 20
Width: 1276
VWidth: 1691
Flags: HMW
LayerCount: 2
Fore
SplineSet
61 578 m 0
 61 1007 395 1260 737 1260 c 0
 906 1260 1045 1222 1139 1163 c 1
 1115 841 l 1
 1028 856 l 1
 992 1047 l 1
 947 1093 844 1161 677 1161 c 0
 460 1161 276 1013 276 647 c 0
 276 350 454 77 771 77 c 0
 851 77 915 103 943 119 c 1
 943 434 l 1
 707 472 l 1
 719 555 l 1
 1275 555 l 1
 1263 480 l 1
 1139 439 l 1
 1139 79 l 1
 1007 0 858 -31 658 -31 c 0
 256 -31 61 237 61 578 c 0
EndSplineSet
Colour: ffffff
EndChar

StartChar: Germandbls
Encoding: 7838 7838 21
Width: 1283
VWidth: 0
Flags: HMW
LayerCount: 2
Fore
SplineSet
26 0 m 1
 34 73 l 1
 198 119 l 1
 198 751 l 2
 198 1102 393 1250 689 1250 c 0
 874 1250 1169 1208 1169 1032 c 0
 1169 956 1127 923 1049 897 c 1
 1013 1001 976 1112 862 1112 c 0
 778 1112 691 1028 691 928 c 0
 691 637 1232 680 1232 316 c 0
 1232 90 1050 -24 826 -24 c 0
 684 -24 549 30 494 121 c 1
 507 376 l 1
 602 361 l 1
 637 184 l 1
 673 127 757 76 849 76 c 0
 953 76 1050 110 1050 250 c 0
 1050 503 521 468 521 829 c 0
 521 992 621 1123 761 1155 c 1
 763 1158 l 1
 744 1160 695 1161 676 1161 c 0
 481 1161 387 1027 387 774 c 2
 389 0 l 1
 26 0 l 1
EndSplineSet
AlternateSubs2: "Alternate Substitution in Latin lookup 0-1" Germandbls.alt
Colour: ffffff
EndChar

StartChar: Germandbls.alt
Encoding: 65536 -1 22
Width: 1283
VWidth: 0
Flags: HMW
LayerCount: 2
Back
SplineSet
453 122 m 5
 466 389 l 5
 568 375 l 5
 607 187 l 5
 643 130 720 77 813 77 c 4
 918 77 1050 139 1050 287 c 4
 1050 547 477 544 477 916 c 4
 477 1143 669 1269 866 1269 c 4
 974 1269 1069 1235 1148 1169 c 5
 1148 1161 1126 887 1126 887 c 5
 1027 899 l 5
 1002 1090 l 5
 984 1126 912 1185 832 1185 c 4
 732 1185 650 1126 650 995 c 4
 650 708 1234 730 1234 354 c 4
 1234 124 1017 -24 789 -24 c 4
 645 -24 517 43 453 122 c 5
EndSplineSet
Fore
SplineSet
25 0 m 1
 33 73 l 1
 198 119 l 1
 198 678 l 2
 198 1115 392 1250 688 1250 c 0
 851 1250 1076 1232 1134 1213 c 1
 1135 1142 l 1
 835 751 l 1
 922 689 1232 595 1232 332 c 0
 1232 106 1049 -24 825 -24 c 0
 683 -24 548 38 493 129 c 1
 506 392 l 1
 607 377 l 1
 646 192 l 1
 682 135 756 76 848 76 c 0
 952 76 1049 126 1049 266 c 0
 1049 432 772 545 609 639 c 1
 586 687 l 1
 906 1125 l 1
 906 1130 l 1
 864 1148 694 1161 675 1161 c 0
 480 1161 386 1053 386 700 c 1
 388 0 l 1
 25 0 l 1
EndSplineSet
Colour: ffffff
EndChar

StartChar: H
Encoding: 72 72 23
Width: 1416
VWidth: 1691
Flags: HMW
LayerCount: 2
Fore
SplineSet
50 1168 m 1
 61 1244 l 1
 605 1244 l 1
 595 1168 l 1
 427 1130 l 1
 427 692 l 1
 1054 692 l 1
 1054 1126 l 1
 871 1168 l 1
 882 1244 l 1
 1428 1244 l 1
 1416 1168 l 1
 1249 1130 l 1
 1249 114 l 1
 1431 80 l 1
 1421 0 l 1
 878 0 l 1
 888 74 l 1
 1054 121 l 1
 1054 589 l 1
 427 589 l 1
 427 114 l 1
 611 80 l 1
 598 0 l 1
 57 0 l 1
 65 74 l 1
 232 121 l 1
 232 1126 l 1
 50 1168 l 1
EndSplineSet
Colour: ffffff
EndChar

StartChar: I
Encoding: 73 73 24
Width: 601
VWidth: 1691
Flags: HMW
LayerCount: 2
Fore
SplineSet
50 1168 m 1
 61 1244 l 1
 605 1244 l 1
 595 1168 l 1
 426 1130 l 1
 426 114 l 1
 607 80 l 1
 597 0 l 1
 57 0 l 1
 65 74 l 1
 232 121 l 1
 232 1126 l 1
 50 1168 l 1
EndSplineSet
Colour: ffffff
EndChar

StartChar: Iacute
Encoding: 205 205 25
Width: 655
VWidth: 0
Flags: HMW
LayerCount: 2
Fore
SplineSet
289 1385 m 1
 412 1710 l 1
 523 1670 l 1
 341 1354 l 1
 289 1385 l 1
50 1168 m 1
 61 1244 l 1
 605 1244 l 1
 595 1168 l 1
 426 1130 l 1
 426 114 l 1
 607 80 l 1
 597 0 l 1
 57 0 l 1
 65 74 l 1
 232 121 l 1
 232 1126 l 1
 50 1168 l 1
EndSplineSet
Colour: ffffff
EndChar

StartChar: Icircumflex
Encoding: 206 206 26
Width: 655
VWidth: 0
Flags: HMW
LayerCount: 2
Fore
SplineSet
132 1392 m 1
 299 1572 l 1
 354 1585 l 1
 532 1400 l 1
 483 1364 l 1
 319 1472 l 1
 309 1472 l 1
 169 1361 l 1
 132 1392 l 1
50 1168 m 1
 61 1244 l 1
 605 1244 l 1
 595 1168 l 1
 426 1130 l 1
 426 114 l 1
 607 80 l 1
 597 0 l 1
 57 0 l 1
 65 74 l 1
 232 121 l 1
 232 1126 l 1
 50 1168 l 1
EndSplineSet
Colour: ffffff
EndChar

StartChar: Idieresis
Encoding: 207 207 27
Width: 655
VWidth: 0
Flags: HMW
LayerCount: 2
Fore
SplineSet
377 1453 m 0
 377 1500 421 1530 461 1530 c 0
 505 1530 549 1499 549 1453 c 0
 549 1404 505 1373 461 1373 c 0
 418 1373 377 1404 377 1453 c 0
110 1453 m 0
 110 1500 154 1530 194 1530 c 0
 238 1530 279 1499 279 1453 c 0
 279 1404 238 1373 194 1373 c 0
 151 1373 110 1404 110 1453 c 0
50 1168 m 1
 61 1244 l 1
 605 1244 l 1
 595 1168 l 1
 426 1130 l 1
 426 114 l 1
 607 80 l 1
 597 0 l 1
 57 0 l 1
 65 74 l 1
 232 121 l 1
 232 1126 l 1
 50 1168 l 1
EndSplineSet
Colour: ffffff
EndChar

StartChar: Igrave
Encoding: 204 204 28
Width: 655
VWidth: 0
Flags: HMW
LayerCount: 2
Fore
SplineSet
133 1664 m 1
 249 1702 l 1
 381 1368 l 1
 323 1334 l 1
 133 1664 l 1
50 1168 m 1
 61 1244 l 1
 605 1244 l 1
 595 1168 l 1
 426 1130 l 1
 426 114 l 1
 607 80 l 1
 597 0 l 1
 57 0 l 1
 65 74 l 1
 232 121 l 1
 232 1126 l 1
 50 1168 l 1
EndSplineSet
Colour: ffffff
EndChar

StartChar: J
Encoding: 74 74 29
Width: 592
VWidth: 1691
Flags: HMW
LayerCount: 2
Fore
SplineSet
-4 -237 m 1
 151 -90 232 37 232 197 c 2
 233 1126 l 1
 52 1168 l 1
 62 1244 l 1
 607 1244 l 1
 597 1168 l 1
 427 1130 l 1
 426 385 l 2
 425 -24 337 -138 50 -326 c 1
 -4 -237 l 1
EndSplineSet
Colour: ffffff
EndChar

StartChar: K
Encoding: 75 75 30
Width: 1228
VWidth: 1691
Flags: HMW
LayerCount: 2
Fore
SplineSet
453 626 m 1
 481 654 574 758 605 798 c 2
 851 1121 l 1
 696 1168 l 1
 704 1244 l 1
 1197 1244 l 1
 1185 1168 l 1
 1008 1121 l 1
 635 653 l 1
 862 385 l 2
 1013 206 1085 123 1213 83 c 1
 1250 70 l 1
 1240 1 l 1
 1194 -15 1149 -21 1109 -21 c 0
 942 -21 820 104 706 261 c 2
 454 605 l 1
 453 626 l 1
47 1168 m 1
 61 1244 l 1
 611 1244 l 1
 601 1168 l 1
 429 1121 l 1
 429 124 l 1
 618 80 l 1
 607 0 l 1
 54 0 l 1
 64 74 l 1
 236 129 l 1
 236 1117 l 1
 47 1168 l 1
EndSplineSet
Colour: ffffff
EndChar

StartChar: L
Encoding: 76 76 31
Width: 1065
VWidth: 1691
Flags: HMW
LayerCount: 2
Fore
SplineSet
58 0 m 1
 67 74 l 1
 233 121 l 1
 233 1117 l 1
 45 1168 l 1
 58 1244 l 1
 608 1244 l 1
 598 1168 l 1
 427 1121 l 1
 427 96 l 1
 869 96 l 1
 1000 344 l 1
 1085 331 l 1
 1048 0 l 1
 58 0 l 1
EndSplineSet
Colour: ffffff
EndChar

StartChar: M
Encoding: 77 77 32
Width: 1664
VWidth: 1691
Flags: HMW
LayerCount: 2
Fore
SplineSet
24 0 m 1
 35 74 l 1
 202 121 l 1
 275 1126 l 1
 92 1168 l 1
 102 1244 l 1
 505 1244 l 1
 583 1050 l 1
 845 313 l 1
 1152 1083 l 1
 1223 1244 l 1
 1618 1244 l 1
 1608 1168 l 1
 1440 1130 l 1
 1492 114 l 1
 1674 80 l 1
 1664 0 l 1
 1128 0 l 1
 1139 74 l 1
 1305 121 l 1
 1249 1004 l 1
 868 50 l 1
 740 31 l 1
 397 967 l 1
 334 114 l 1
 517 80 l 1
 504 0 l 1
 24 0 l 1
EndSplineSet
Colour: ffffff
EndChar

StartChar: N
Encoding: 78 78 33
Width: 1337
VWidth: 1691
Flags: HMW
LayerCount: 2
Fore
SplineSet
50 1168 m 1
 61 1244 l 1
 411 1244 l 1
 1054 274 l 1
 1054 1126 l 1
 869 1168 l 1
 881 1244 l 1
 1356 1244 l 1
 1343 1168 l 1
 1176 1130 l 1
 1176 1 l 1
 1023 -30 l 1
 360 961 l 1
 360 114 l 1
 543 80 l 1
 532 0 l 1
 57 0 l 1
 65 74 l 1
 232 121 l 1
 232 1117 l 1
 50 1168 l 1
EndSplineSet
Colour: ffffff
EndChar

StartChar: Ntilde
Encoding: 209 209 34
Width: 2048
VWidth: 0
Flags: HM
LayerCount: 2
Fore
SplineSet
445 1383 m 1
 445 1383 477 1526 566 1526 c 0
 570 1526 576 1527 580 1526 c 2
 802 1496 l 1
 807 1496 l 2
 832 1496 862 1536 862 1536 c 1
 910 1535 l 1
 910 1535 873 1391 781 1391 c 0
 777 1391 772 1391 768 1392 c 2
 546 1423 l 1
 543 1423 l 2
 515 1423 483 1376 483 1376 c 1
 445 1383 l 1
50 1168 m 1
 61 1244 l 1
 412 1244 l 1
 1054 271 l 1
 1054 1126 l 1
 869 1168 l 1
 881 1244 l 1
 1356 1244 l 1
 1343 1168 l 1
 1176 1130 l 1
 1176 1 l 1
 1023 -30 l 1
 360 961 l 1
 360 114 l 1
 543 80 l 1
 532 0 l 1
 57 0 l 1
 65 74 l 1
 232 121 l 1
 232 1117 l 1
 50 1168 l 1
EndSplineSet
Colour: ffffff
EndChar

StartChar: O
Encoding: 79 79 35
Width: 1322
VWidth: 1691
Flags: HMW
LayerCount: 2
Fore
SplineSet
283 676 m 0
 283 382 398 79 686 79 c 0
 990 79 1062 330 1062 573 c 0
 1062 856 945 1176 658 1176 c 0
 358 1176 283 937 283 676 c 0
61 619 m 0
 61 1004 308 1272 706 1272 c 0
 1068 1272 1284 970 1284 619 c 0
 1284 274 1051 -27 636 -27 c 0
 291 -27 61 257 61 619 c 0
EndSplineSet
Colour: ffffff
EndChar

StartChar: Oacute
Encoding: 211 211 36
Width: 1342
VWidth: 0
Flags: HMW
LayerCount: 2
Fore
SplineSet
574 1380 m 1
 696 1705 l 1
 808 1666 l 1
 624 1348 l 1
 574 1380 l 1
295 676 m 0
 295 382 410 79 698 79 c 0
 1002 79 1073 330 1073 573 c 0
 1073 856 957 1176 670 1176 c 0
 370 1176 295 937 295 676 c 0
73 619 m 0
 73 1004 320 1272 718 1272 c 0
 1080 1272 1296 970 1296 619 c 0
 1296 274 1064 -27 649 -27 c 0
 304 -27 73 257 73 619 c 0
EndSplineSet
Colour: ffffff
EndChar

StartChar: Ocircumflex
Encoding: 212 212 37
Width: 1342
VWidth: 0
Flags: HMW
LayerCount: 2
Fore
SplineSet
484 1392 m 1
 652 1572 l 1
 707 1585 l 1
 885 1400 l 1
 836 1364 l 1
 672 1472 l 1
 662 1472 l 1
 522 1361 l 1
 484 1392 l 1
283 676 m 0
 283 382 398 79 686 79 c 0
 990 79 1062 330 1062 573 c 0
 1062 856 945 1176 658 1176 c 0
 358 1176 283 937 283 676 c 0
61 619 m 0
 61 1004 308 1272 706 1272 c 0
 1068 1272 1284 970 1284 619 c 0
 1284 274 1051 -27 636 -27 c 0
 291 -27 61 257 61 619 c 0
EndSplineSet
Colour: ffffff
EndChar

StartChar: Odieresis
Encoding: 214 214 38
Width: 1342
VWidth: 0
Flags: HMW
LayerCount: 2
Fore
SplineSet
730 1453 m 0
 730 1500 774 1530 814 1530 c 0
 858 1530 902 1499 902 1453 c 0
 902 1404 858 1373 814 1373 c 0
 771 1373 730 1404 730 1453 c 0
463 1453 m 0
 463 1500 507 1530 547 1530 c 0
 591 1530 632 1499 632 1453 c 0
 632 1404 591 1373 547 1373 c 0
 504 1373 463 1404 463 1453 c 0
283 676 m 0
 283 382 398 79 686 79 c 0
 990 79 1062 330 1062 573 c 0
 1062 856 945 1176 658 1176 c 0
 358 1176 283 937 283 676 c 0
61 619 m 0
 61 1004 308 1272 706 1272 c 0
 1068 1272 1284 970 1284 619 c 0
 1284 274 1051 -27 636 -27 c 0
 291 -27 61 257 61 619 c 0
EndSplineSet
Colour: ffffff
EndChar

StartChar: Ograve
Encoding: 210 210 39
Width: 1342
VWidth: 0
Flags: HMW
LayerCount: 2
Fore
SplineSet
527 1664 m 1
 642 1702 l 1
 774 1368 l 1
 717 1334 l 1
 527 1664 l 1
283 676 m 0
 283 382 398 79 686 79 c 0
 990 79 1062 330 1062 573 c 0
 1062 856 945 1176 658 1176 c 0
 358 1176 283 937 283 676 c 0
61 619 m 0
 61 1004 308 1272 706 1272 c 0
 1068 1272 1284 970 1284 619 c 0
 1284 274 1051 -27 636 -27 c 0
 291 -27 61 257 61 619 c 0
EndSplineSet
Colour: ffffff
EndChar

StartChar: Oslash
Encoding: 216 216 40
Width: 1342
VWidth: 0
Flags: HMW
LayerCount: 2
Fore
SplineSet
73 619 m 0
 73 1004 320 1272 718 1272 c 0
 801.05 1272 876.416 1256.1 943.252 1227.37 c 1
 984 1304 l 1
 1136 1312 l 1
 1054.4 1162.26 l 1
 1209.56 1043.48 1296 841.045 1296 619 c 0
 1296 274 1064 -27 649 -27 c 0
 572.237 -27 501.119 -12.9402 436.932 12.9103 c 1
 375 -102 l 1
 228 -111 l 1
 326.932 73.2707 l 1
 167.916 186.959 73 386.955 73 619 c 0
483.925 152.402 m 1
 540.754 106.276 611.59 79 698 79 c 0
 1002 79 1073 330 1073 573 c 0
 1073 732.758 1036.03 904.306 952.206 1023.42 c 1
 483.925 152.402 l 1
427.331 209.892 m 1
 897.222 1087.14 l 1
 838.229 1142.32 763.114 1176 670 1176 c 0
 370 1176 295 937 295 676 c 0
 295 502.336 335.126 325.532 427.331 209.892 c 1
EndSplineSet
Colour: ffffff
EndChar

StartChar: Otilde
Encoding: 213 213 41
Width: 1342
VWidth: 0
Flags: HMW
LayerCount: 2
Fore
SplineSet
448 1383 m 1
 448 1383 479 1526 568 1526 c 0
 572 1526 577 1527 581 1526 c 2
 805 1496 l 1
 810 1496 l 2
 835 1496 866 1536 866 1536 c 1
 913 1535 l 1
 913 1535 875 1391 783 1391 c 0
 779 1391 775 1391 771 1392 c 2
 547 1423 l 1
 546 1423 l 2
 518 1423 485 1376 485 1376 c 1
 448 1383 l 1
283 676 m 0
 283 382 398 79 686 79 c 0
 990 79 1062 330 1062 573 c 0
 1062 856 945 1176 658 1176 c 0
 358 1176 283 937 283 676 c 0
61 619 m 0
 61 1004 308 1272 706 1272 c 0
 1068 1272 1284 970 1284 619 c 0
 1284 274 1051 -27 636 -27 c 0
 291 -27 61 257 61 619 c 0
EndSplineSet
Colour: ffffff
EndChar

StartChar: P
Encoding: 80 80 42
Width: 1009
VWidth: 1691
Flags: HMW
LayerCount: 2
Fore
SplineSet
50 0 m 1
 61 74 l 1
 228 121 l 1
 228 1104 l 1
 57 1134 l 1
 67 1211 l 1
 196 1230 372 1255 543 1255 c 0
 804 1255 1045 1184 1045 892 c 0
 1045 655 827 494 584 494 c 0
 548 494 515 496 484 497 c 1
 466 580 l 1
 519 581 l 1
 734 587 838 678 838 856 c 0
 838 1027 750 1172 522 1172 c 0
 482 1172 420 1166 420 1166 c 1
 420 122 l 1
 657 83 l 1
 643 0 l 1
 50 0 l 1
EndSplineSet
Colour: ffffff
EndChar

StartChar: Q
Encoding: 81 81 43
Width: 1334
VWidth: 1691
Flags: HMW
LayerCount: 2
Fore
SplineSet
263 679 m 0
 263 439 369 88 749 67 c 1
 1019 134 1092 336 1092 563 c 0
 1092 857 928 1168 664 1168 c 0
 413 1168 263 989 263 679 c 0
61 608 m 0
 61 994 325 1272 721 1272 c 0
 1078 1272 1299 980 1299 629 c 0
 1299 335 1122 68 818 -6 c 1
 877 -141 963 -228 1250 -275 c 1
 1250 -299 1247 -333 1241 -351 c 1
 1179 -381 1121 -385 1065 -385 c 0
 884 -385 721 -249 703 -21 c 1
 693 -24 653 -27 638 -27 c 0
 293 -27 61 246 61 608 c 0
EndSplineSet
Colour: ffffff
EndChar

StartChar: R
Encoding: 82 82 44
Width: 1213
VWidth: 1691
Flags: HMW
LayerCount: 2
Fore
SplineSet
420 628 m 1
 618 628 l 1
 717 661 818 745 818 887 c 0
 818 1051 717 1169 540 1169 c 0
 470 1169 420 1164 420 1164 c 1
 420 628 l 1
50 0 m 1
 61 74 l 1
 228 121 l 1
 228 1100 l 1
 57 1130 l 1
 67 1207 l 1
 214 1230 375 1253 523 1253 c 0
 820 1253 1025 1176 1025 943 c 0
 1025 814 926 666 738 599 c 1
 738 598 l 1
 918 349 l 2
 1035 187 1087 114 1211 77 c 2
 1244 67 l 1
 1229 -1 l 1
 1186 -16 1146 -21 1109 -21 c 0
 950 -21 840 98 753 253 c 2
 594 537 l 1
 420 537 l 1
 420 126 l 1
 608 83 l 1
 598 0 l 1
 50 0 l 1
EndSplineSet
Colour: ffffff
EndChar

StartChar: S
Encoding: 83 83 45
Width: 863
VWidth: 1691
Flags: HMW
LayerCount: 2
Fore
SplineSet
66 122 m 1
 79 389 l 1
 181 375 l 1
 220 187 l 1
 256 130 333 77 426 77 c 0
 531 77 663 139 663 287 c 0
 663 547 90 544 90 916 c 0
 90 1143 282 1269 479 1269 c 0
 587 1269 682 1235 761 1169 c 1
 761 1161 739 887 739 887 c 1
 640 899 l 1
 615 1090 l 1
 597 1126 525 1185 445 1185 c 0
 345 1185 263 1126 263 995 c 0
 263 708 847 730 847 354 c 0
 847 124 630 -24 402 -24 c 0
 258 -24 130 43 66 122 c 1
EndSplineSet
Colour: ffffff
EndChar

StartChar: T
Encoding: 84 84 46
Width: 1119
VWidth: 1691
Flags: HMW
LayerCount: 2
Fore
SplineSet
23 1244 m 1
 1134 1244 l 1
 1100 906 l 1
 1005 921 l 1
 967 1152 l 1
 662 1152 l 1
 662 114 l 1
 847 80 l 1
 833 0 l 1
 294 0 l 1
 301 74 l 1
 470 121 l 1
 470 1152 l 1
 175 1152 l 1
 122 909 l 1
 31 922 l 1
 23 1244 l 1
EndSplineSet
Colour: ffffff
EndChar

StartChar: Thorn
Encoding: 222 222 47
Width: 1084
VWidth: 0
Flags: HMW
LayerCount: 2
Fore
SplineSet
50 1168 m 1
 61 1244 l 1
 604 1244 l 1
 594 1168 l 1
 423 1130 l 1
 423 1020 l 1
 463 1021 507 1024 547 1024 c 0
 808 1024 1048 952 1048 660 c 0
 1048 423 847 260 604 260 c 0
 568 260 527 262 487 266 c 1
 470 351 l 1
 711 338 841 429 841 624 c 0
 841 795 747 926 529 926 c 0
 489 926 423 919 423 919 c 1
 423 121 l 1
 660 83 l 1
 647 -1 l 1
 54 -1 l 1
 64 73 l 1
 232 119 l 1
 232 1126 l 1
 50 1168 l 1
EndSplineSet
Colour: ffffff
EndChar

StartChar: U
Encoding: 85 85 48
Width: 1369
VWidth: 1691
Flags: HMW
LayerCount: 2
Fore
SplineSet
22 1168 m 1
 35 1244 l 1
 577 1244 l 1
 568 1168 l 1
 399 1130 l 1
 399 510 l 2
 399 225 542 105 747 105 c 0
 949 105 1071 221 1072 482 c 2
 1075 1126 l 1
 892 1168 l 1
 902 1244 l 1
 1380 1244 l 1
 1369 1168 l 1
 1203 1130 l 1
 1198 515 l 2
 1195 155 1044 -27 697 -27 c 0
 466 -27 206 48 206 469 c 2
 206 1126 l 1
 22 1168 l 1
EndSplineSet
Colour: ffffff
EndChar

StartChar: Uacute
Encoding: 218 218 49
Width: 1401
VWidth: 0
Flags: HMW
LayerCount: 2
Fore
SplineSet
37 1168 m 1
 50 1244 l 1
 592 1244 l 1
 583 1168 l 1
 414 1130 l 1
 414 510 l 2
 414 225 557 105 762 105 c 0
 964 105 1086 221 1087 482 c 2
 1090 1126 l 1
 907 1168 l 1
 917 1244 l 1
 1395 1244 l 1
 1384 1168 l 1
 1218 1130 l 1
 1213 515 l 2
 1210 155 1059 -27 712 -27 c 0
 481 -27 221 48 221 469 c 2
 221 1126 l 1
 37 1168 l 1
684 1348 m 1
 633 1380 l 1
 756 1705 l 1
 867 1666 l 1
 684 1348 l 1
EndSplineSet
Colour: ffffff
EndChar

StartChar: Ucircumflex
Encoding: 219 219 50
Width: 1401
VWidth: 0
Flags: HMW
LayerCount: 2
Fore
SplineSet
537 1392 m 1
 704 1572 l 1
 759 1585 l 1
 937 1400 l 1
 887 1364 l 1
 724 1472 l 1
 713 1472 l 1
 574 1361 l 1
 537 1392 l 1
22 1168 m 1
 35 1244 l 1
 577 1244 l 1
 568 1168 l 1
 399 1130 l 1
 399 510 l 2
 399 225 542 105 747 105 c 0
 949 105 1071 221 1072 482 c 2
 1075 1126 l 1
 892 1168 l 1
 902 1244 l 1
 1380 1244 l 1
 1369 1168 l 1
 1203 1130 l 1
 1198 515 l 2
 1195 155 1044 -27 697 -27 c 0
 466 -27 206 48 206 469 c 2
 206 1126 l 1
 22 1168 l 1
EndSplineSet
Colour: ffffff
EndChar

StartChar: Udieresis
Encoding: 220 220 51
Width: 1401
VWidth: 0
Flags: HMW
LayerCount: 2
Fore
SplineSet
782 1453 m 0
 782 1500 826 1530 866 1530 c 0
 910 1530 953 1499 953 1453 c 0
 953 1404 910 1373 866 1373 c 0
 823 1373 782 1404 782 1453 c 0
515 1453 m 0
 515 1500 558 1530 598 1530 c 0
 642 1530 684 1499 684 1453 c 0
 684 1404 642 1373 598 1373 c 0
 555 1373 515 1404 515 1453 c 0
22 1168 m 1
 35 1244 l 1
 577 1244 l 1
 568 1168 l 1
 399 1130 l 1
 399 510 l 2
 399 225 542 105 747 105 c 0
 949 105 1071 221 1072 482 c 2
 1075 1126 l 1
 892 1168 l 1
 902 1244 l 1
 1380 1244 l 1
 1369 1168 l 1
 1203 1130 l 1
 1198 515 l 2
 1195 155 1044 -27 697 -27 c 0
 466 -27 206 48 206 469 c 2
 206 1126 l 1
 22 1168 l 1
EndSplineSet
Colour: ffffff
EndChar

StartChar: Ugrave
Encoding: 217 217 52
Width: 2048
VWidth: 0
Flags: HM
LayerCount: 2
Fore
SplineSet
475 1659 m 1
 590 1697 l 1
 722 1364 l 1
 666 1329 l 1
 475 1659 l 1
37 1168 m 1
 50 1244 l 1
 592 1244 l 1
 583 1168 l 1
 414 1130 l 1
 414 510 l 2
 414 225 557 105 762 105 c 0
 964 105 1086 221 1087 482 c 2
 1090 1126 l 1
 907 1168 l 1
 917 1244 l 1
 1395 1244 l 1
 1384 1168 l 1
 1218 1130 l 1
 1213 515 l 2
 1210 155 1059 -27 712 -27 c 0
 481 -27 221 48 221 469 c 2
 221 1126 l 1
 37 1168 l 1
EndSplineSet
Colour: ffffff
EndChar

StartChar: V
Encoding: 86 86 53
Width: 1284
VWidth: 1691
Flags: HMW
LayerCount: 2
Fore
SplineSet
-21 1168 m 1
 -11 1244 l 1
 527 1244 l 1
 517 1168 l 1
 347 1130 l 1
 660 251 l 1
 980 1126 l 1
 798 1168 l 1
 805 1244 l 1
 1260 1244 l 1
 1253 1168 l 1
 1121 1130 l 1
 696 4 l 1
 544 -24 l 1
 126 1126 l 1
 -21 1168 l 1
EndSplineSet
Colour: ffffff
EndChar

StartChar: W
Encoding: 87 87 54
Width: 1844
VWidth: 1691
Flags: HMW
LayerCount: 2
Fore
SplineSet
-11 1168 m 1
 -2 1244 l 1
 512 1244 l 1
 497 1168 l 1
 330 1130 l 1
 572 271 l 1
 853 1194 l 1
 1029 1219 l 1
 1277 287 l 1
 1538 1126 l 1
 1357 1168 l 1
 1368 1244 l 1
 1817 1244 l 1
 1806 1168 l 1
 1683 1130 l 1
 1318 4 l 1
 1164 -24 l 1
 902 951 l 1
 617 4 l 1
 454 -24 l 1
 129 1126 l 1
 -11 1168 l 1
EndSplineSet
Colour: ffffff
EndChar

StartChar: X
Encoding: 88 88 55
Width: 1202
VWidth: 1691
Flags: HMW
LayerCount: 2
Fore
SplineSet
-1 0 m 1
 11 76 l 1
 138 121 l 1
 504 615 l 1
 165 1123 l 1
 28 1166 l 1
 40 1244 l 1
 553 1244 l 1
 543 1166 l 1
 386 1121 l 1
 633 750 l 1
 904 1126 l 1
 734 1166 l 1
 747 1244 l 1
 1182 1244 l 1
 1174 1168 l 1
 1047 1130 l 1
 709 657 l 1
 1050 114 l 1
 1185 80 l 1
 1172 0 l 1
 669 0 l 1
 682 74 l 1
 842 121 l 1
 580 529 l 1
 288 117 l 1
 454 83 l 1
 439 0 l 1
 -1 0 l 1
EndSplineSet
Colour: ffffff
EndChar

StartChar: Y
Encoding: 89 89 56
Width: 1210
VWidth: 1691
Flags: HMW
LayerCount: 2
Fore
SplineSet
-21 1168 m 1
 -8 1244 l 1
 500 1244 l 1
 488 1168 l 1
 330 1130 l 1
 607 640 l 1
 871 1126 l 1
 688 1168 l 1
 698 1244 l 1
 1143 1244 l 1
 1133 1168 l 1
 1008 1130 l 1
 663 529 l 1
 663 114 l 1
 826 80 l 1
 816 0 l 1
 310 0 l 1
 320 74 l 1
 470 121 l 1
 470 504 l 1
 117 1126 l 1
 -21 1168 l 1
EndSplineSet
Colour: ffffff
EndChar

StartChar: Yacute
Encoding: 221 221 57
Width: 1123
VWidth: 0
Flags: HMW
LayerCount: 2
Fore
SplineSet
455 1380 m 1
 578 1705 l 1
 689 1666 l 1
 506 1348 l 1
 455 1380 l 1
-73 1168 m 1
 -60 1244 l 1
 448 1244 l 1
 436 1168 l 1
 278 1130 l 1
 555 640 l 1
 819 1126 l 1
 636 1168 l 1
 646 1244 l 1
 1091 1244 l 1
 1081 1168 l 1
 956 1130 l 1
 611 529 l 1
 611 114 l 1
 774 80 l 1
 764 0 l 1
 258 0 l 1
 268 74 l 1
 418 121 l 1
 418 504 l 1
 65 1126 l 1
 -73 1168 l 1
EndSplineSet
Colour: ffffff
EndChar

StartChar: Z
Encoding: 90 90 58
Width: 1009
VWidth: 1691
Flags: HMW
LayerCount: 2
Fore
SplineSet
47 104 m 1
 792 1149 l 1
 255 1149 l 1
 178 903 l 1
 88 921 l 1
 98 1244 l 1
 1026 1244 l 1
 1026 1168 l 1
 262 100 l 1
 832 100 l 1
 955 351 l 1
 1048 335 l 1
 991 0 l 1
 55 0 l 1
 47 104 l 1
EndSplineSet
Colour: ffffff
EndChar

StartChar: a
Encoding: 97 97 59
Width: 1077
VWidth: 1691
Flags: HMW
LayerCount: 2
Fore
SplineSet
37 0 m 1
 46 74 l 1
 165 129 l 1
 489 917 l 1
 640 948 l 1
 934 124 l 1
 1041 80 l 1
 1032 0 l 1
 587 0 l 1
 599 74 l 1
 730 121 l 1
 665.448 310 l 1
 368.139 310 l 1
 300 124 l 1
 446 80 l 1
 435 0 l 1
 37 0 l 1
405.505 412 m 1
 630.611 412 l 1
 522 730 l 1
 405.505 412 l 1
EndSplineSet
Colour: ffffff
EndChar

StartChar: aacute
Encoding: 225 225 60
Width: 1077
VWidth: 0
Flags: HMW
LayerCount: 2
Fore
SplineSet
514 1052.7 m 1
 637 1377.7 l 1
 748 1338.7 l 1
 565 1020.7 l 1
 514 1052.7 l 1
37 0 m 1
 46 74 l 1
 165 129 l 1
 489 917 l 1
 640 948 l 1
 934 124 l 1
 1041 80 l 1
 1032 0 l 1
 587 0 l 1
 599 74 l 1
 730 121 l 1
 665.448 310 l 1
 368.139 310 l 1
 300 124 l 1
 446 80 l 1
 435 0 l 1
 37 0 l 1
405.505 412 m 1
 630.611 412 l 1
 522 730 l 1
 405.505 412 l 1
EndSplineSet
Colour: ffffff
EndChar

StartChar: acircumflex
Encoding: 226 226 61
Width: 1077
VWidth: 0
Flags: HMW
LayerCount: 2
Fore
SplineSet
368 1058 m 1
 536 1237 l 1
 591 1252 l 1
 769 1066 l 1
 720 1029 l 1
 557 1139 l 1
 546 1139 l 1
 407 1028 l 1
 368 1058 l 1
37 0 m 1
 46 74 l 1
 165 129 l 1
 489 917 l 1
 640 948 l 1
 934 124 l 1
 1041 80 l 1
 1032 0 l 1
 587 0 l 1
 599 74 l 1
 730 121 l 1
 665.448 310 l 1
 368.139 310 l 1
 300 124 l 1
 446 80 l 1
 435 0 l 1
 37 0 l 1
405.505 412 m 1
 630.611 412 l 1
 522 730 l 1
 405.505 412 l 1
EndSplineSet
Colour: ffffff
EndChar

StartChar: acute
Encoding: 180 180 62
Width: 520
VWidth: 0
Flags: HMW
LayerCount: 2
Fore
SplineSet
172 1380 m 1
 295 1705 l 1
 406 1666 l 1
 223 1348 l 1
 172 1380 l 1
EndSplineSet
Colour: ffffff
EndChar

StartChar: adieresis
Encoding: 228 228 63
Width: 1077
VWidth: 0
Flags: HMW
LayerCount: 2
Fore
SplineSet
612 1109 m 0
 612 1156 657 1186 697 1186 c 0
 741 1186 784 1155 784 1109 c 0
 784 1060 741 1027 697 1027 c 0
 654 1027 612 1060 612 1109 c 0
344 1109 m 0
 344 1156 389 1186 429 1186 c 0
 473 1186 515 1155 515 1109 c 0
 515 1060 473 1027 429 1027 c 0
 386 1027 344 1060 344 1109 c 0
37 0 m 1
 46 74 l 1
 165 129 l 1
 489 917 l 1
 640 948 l 1
 934 124 l 1
 1041 80 l 1
 1032 0 l 1
 587 0 l 1
 599 74 l 1
 730 121 l 1
 665.448 310 l 1
 368.139 310 l 1
 300 124 l 1
 446 80 l 1
 435 0 l 1
 37 0 l 1
405.505 412 m 1
 630.611 412 l 1
 522 730 l 1
 405.505 412 l 1
EndSplineSet
Colour: ffffff
EndChar

StartChar: ae
Encoding: 230 230 64
Width: 1452
VWidth: 0
Flags: HMW
LayerCount: 2
Fore
SplineSet
522 423 m 1
 733 423 l 1
 733 754 l 1
 522 423 l 1
52 1 m 1
 61 76 l 1
 197 131 l 1
 654 812 l 1
 450 851 l 1
 460 927 l 1
 1373 927 l 1
 1352 654 l 1
 1253 667 l 1
 1222 835 l 1
 921 835 l 1
 921 503 l 1
 1098 503 l 1
 1120 583 l 1
 1218 597 l 1
 1184 298 l 1
 1093 285 l 1
 1082 410 l 1
 921 410 l 1
 921 96 l 1
 1256 96 l 1
 1323 276 l 1
 1417 263 l 1
 1397 0 l 1
 588 0 l 1
 596 74 l 1
 733 121 l 1
 733 327 l 1
 460 327 l 1
 332 126 l 1
 480 83 l 1
 467 1 l 1
 52 1 l 1
EndSplineSet
Colour: ffffff
EndChar

StartChar: agrave
Encoding: 224 224 65
Width: 2048
VWidth: 0
Flags: HM
LayerCount: 2
Fore
SplineSet
343 1350 m 1
 458 1388 l 1
 590 1055 l 1
 534 1020 l 1
 343 1350 l 1
18 0 m 1
 27 74 l 1
 146 129 l 1
 470 917 l 1
 621 948 l 1
 915 124 l 1
 1022 80 l 1
 1013 0 l 1
 568 0 l 1
 580 74 l 1
 711 121 l 1
 646.448 310 l 1
 349.139 310 l 1
 281 124 l 1
 427 80 l 1
 416 0 l 1
 18 0 l 1
386.505 412 m 1
 611.611 412 l 1
 503 730 l 1
 386.505 412 l 1
EndSplineSet
Colour: ffffff
EndChar

StartChar: ampersand
Encoding: 38 38 66
Width: 1281
VWidth: 0
Flags: HMW
LayerCount: 2
Back
SplineSet
-73 711 m 1
 -63 787 l 1
 475 787 l 1
 465 711 l 1
 295 673 l 1
 608 -206 l 1
 928 669 l 5
 746 711 l 5
 753 787 l 5
 1208 787 l 5
 1201 711 l 5
 1069 673 l 5
 644 -453 l 1
 492 -481 l 1
 74 669 l 1
 -73 711 l 1
EndSplineSet
Fore
SplineSet
422.769 398.71 m 1
 371.588 353.939 335 298.656 335 216 c 0
 335 163 387 99 457 99 c 0
 517.905 99 573.646 118.213 629.105 167.811 c 1
 422.769 398.71 l 1
690.06 102.255 m 1
 612.325 24.2089 522.112 -19 396 -19 c 0
 243 -19 147 63 147 182 c 0
 147 319.626 254.991 394.679 364.815 463.565 c 1
 326 507 l 1
 284 561 245 631 245 703 c 0
 245 826 366 947 507 947 c 0
 650 947 740 864 740 753 c 0
 740 619.892 654.677 553.779 562.357 494.611 c 1
 736.328 302.998 l 1
 768.371 355.187 801.307 419.196 836 497 c 1
 722 539 l 1
 732 607 l 1
 1106 607 l 1
 1096 539 l 1
 946 500 l 1
 891.713 400.212 844.122 311.945 795.965 237.795 c 1
 895.433 134.001 978.626 98.9867 1043 81 c 1
 1076 71 l 1
 1062 2 l 1
 1025 -11 986 -18 943 -18 c 0
 843.094 -18 750.479 44.7067 690.06 102.255 c 1
504.703 558.11 m 1
 557.193 601.77 594 651.992 594 720 c 0
 594 822 544 864 487 864 c 0
 444 864 407 811 407 752 c 0
 407 701 423 658 493 571 c 1
 504.703 558.11 l 1
EndSplineSet
Colour: ffffff
EndChar

StartChar: aring
Encoding: 229 229 67
Width: 1077
VWidth: 0
Flags: HMW
LayerCount: 2
Fore
SplineSet
474 1184 m 0
 474 1123 505 1056 569 1056 c 0
 623 1056 655 1097 655 1170 c 0
 655 1232 621 1296 559 1296 c 0
 500 1296 474 1240 474 1184 c 0
403 1173 m 0
 403 1265 477 1345 570 1345 c 0
 666 1345 726 1275 726 1182 c 0
 726 1092 659 1007 557 1007 c 0
 465 1007 403 1071 403 1173 c 0
37 0 m 1
 46 74 l 1
 165 129 l 1
 489 917 l 1
 640 948 l 1
 934 124 l 1
 1041 80 l 1
 1032 0 l 1
 587 0 l 1
 599 74 l 1
 730 121 l 1
 665.448 310 l 1
 368.139 310 l 1
 300 124 l 1
 446 80 l 1
 435 0 l 1
 37 0 l 1
405.505 412 m 1
 630.611 412 l 1
 522 730 l 1
 405.505 412 l 1
EndSplineSet
Colour: ffffff
EndChar

StartChar: asciicircum
Encoding: 94 94 68
Width: 720
VWidth: 0
Flags: HMW
LayerCount: 2
Fore
SplineSet
42 826 m 1
 331 1237 l 1
 386 1250 l 1
 681 824 l 1
 624 787 l 1
 353 1073 l 1
 343 1073 l 1
 92 793 l 1
 42 826 l 1
EndSplineSet
Colour: ffffff
EndChar

StartChar: asciitilde
Encoding: 126 126 69
Width: 947
VWidth: 0
Flags: HMW
LayerCount: 2
Fore
SplineSet
83 412 m 1
 83 412 142 624 274 611 c 2
 724 566 l 2
 761 563 806 628 806 628 c 1
 870 626 l 1
 870 626 808 409 672 424 c 1
 222 469 l 2
 182 473 138 399 138 399 c 1
 83 412 l 1
EndSplineSet
Colour: ffffff
EndChar

StartChar: asterisk
Encoding: 42 42 70
Width: 808
VWidth: 0
Flags: HMW
LayerCount: 2
Fore
SplineSet
43 964 m 1
 98 1091 l 1
 365 977 l 1
 328 1292 l 1
 464 1279 l 1
 438 988 l 1
 727 1119 l 1
 756 989 l 1
 471 921 l 1
 690 692 l 1
 572 623 l 1
 419 870 l 1
 264 593 l 1
 162 685 l 1
 355 904 l 1
 43 964 l 1
EndSplineSet
Colour: ffffff
EndChar

StartChar: at
Encoding: 64 64 71
Width: 1367
VWidth: 0
Flags: HMW
LayerCount: 2
Fore
SplineSet
516 368 m 0
 516 217 551 181 601 181 c 0
 654 181 705 214 739 254 c 1
 792 692 l 1
 773 696 735 703 704 703 c 0
 588 703 516 522 516 368 c 0
54 325 m 0
 54 723 356 1044 787 1044 c 0
 1067 1044 1306 863 1306 589 c 0
 1306 319 1106 70 832 70 c 0
 764 70 735 117 738 187 c 1
 728 187 l 1
 688 128 617 59 541 59 c 0
 436 59 360 155 360 326 c 0
 360 611 590 789 758 789 c 0
 811 789 867 786 924 773 c 1
 943 751 l 1
 902 385 l 2
 893 301 866 168 914 168 c 0
 1065 168 1173 346 1173 549 c 0
 1173 810 987 955 751 955 c 0
 422 955 209 665 209 351 c 0
 209 56 399 -135 727 -135 c 0
 877 -135 1032 -59 1079 -19 c 1
 1115 -83 l 1
 1026 -136 906 -228 691 -228 c 0
 387 -228 54 -77 54 325 c 0
EndSplineSet
Colour: ffffff
EndChar

StartChar: atilde
Encoding: 227 227 72
Width: 1077
VWidth: 0
Flags: HMW
LayerCount: 2
Fore
SplineSet
348 1032 m 1
 348 1032 388 1186 484 1174 c 2
 710 1145 l 2
 735 1142 766 1185 766 1185 c 1
 815 1183 l 1
 815 1183 768 1027 671 1040 c 2
 446 1072 l 2
 418 1076 387 1023 387 1023 c 1
 348 1032 l 1
37 0 m 1
 46 74 l 1
 165 129 l 1
 489 917 l 1
 640 948 l 1
 934 124 l 1
 1041 80 l 1
 1032 0 l 1
 587 0 l 1
 599 74 l 1
 730 121 l 1
 665.448 310 l 1
 368.139 310 l 1
 300 124 l 1
 446 80 l 1
 435 0 l 1
 37 0 l 1
405.505 412 m 1
 630.611 412 l 1
 522 730 l 1
 405.505 412 l 1
EndSplineSet
Colour: ffffff
EndChar

StartChar: b
Encoding: 98 98 73
Width: 943
VWidth: 1691
Flags: HMW
LayerCount: 2
Fore
SplineSet
377 525 m 1
 543 525 l 1
 601 559 635 631 635 709 c 0
 635 786 591 871 427 871 c 0
 412 871 394 870 377 868 c 1
 377 525 l 1
377 96 m 1
 507 96 l 2
 641 96 711 163 711 277 c 0
 711 363 645 442 510 442 c 2
 377 442 l 1
 377 96 l 1
37 0 m 1
 48 74 l 1
 185 121 l 1
 185 804 l 1
 44 834 l 1
 54 911 l 1
 181 932 331 957 486 957 c 0
 719 957 815 847 815 727 c 0
 815 651 773 558 637 516 c 1
 637 509 l 1
 816 501 907 425 907 290 c 0
 907 147 799 0 465 0 c 2
 37 0 l 1
EndSplineSet
Colour: ffffff
EndChar

StartChar: backslash
Encoding: 92 92 74
Width: 677
VWidth: 0
Flags: HMW
LayerCount: 2
Fore
SplineSet
37 1274 m 1
 171 1266 l 1
 632 -376 l 1
 504 -368 l 1
 37 1274 l 1
EndSplineSet
Colour: ffffff
EndChar

StartChar: bar
Encoding: 124 124 75
Width: 331
VWidth: 0
Flags: HMW
LayerCount: 2
Fore
SplineSet
109 -366 m 1
 109 1260 l 1
 224 1248 l 1
 224 -380 l 1
 109 -366 l 1
EndSplineSet
Colour: ffffff
EndChar

StartChar: braceleft
Encoding: 123 123 76
Width: 551
VWidth: 0
Flags: HMW
LayerCount: 2
Fore
SplineSet
4 389 m 1
 4 488 l 1
 53 497 l 1
 345 547 17 1255 426 1255 c 2
 527 1255 l 1
 518 1155 l 1
 436 1149 l 1
 368 1143 364 1044 364 921 c 2
 364 862 l 2
 364 687 356 491 194 445 c 1
 194 438 l 1
 492 352 265 -259 449 -271 c 1
 523 -277 l 1
 531 -378 l 1
 429 -378 l 2
 14 -378 343 335 56 381 c 1
 4 389 l 1
EndSplineSet
Colour: ffffff
EndChar

StartChar: braceright
Encoding: 125 125 77
Width: 553
VWidth: 0
Flags: HMW
LayerCount: 2
Fore
SplineSet
22 -378 m 1
 31 -277 l 1
 105 -271 l 1
 289 -259 62 352 360 438 c 1
 360 445 l 1
 62 515 292 1134 117 1149 c 1
 35 1155 l 1
 28 1255 l 1
 129 1255 l 2
 538 1255 208 547 500 497 c 1
 549 488 l 1
 549 389 l 1
 497 381 l 1
 210 335 541 -378 126 -378 c 2
 22 -378 l 1
EndSplineSet
Colour: ffffff
EndChar

StartChar: bracketleft
Encoding: 91 91 78
Width: 474
VWidth: 0
Flags: HMW
LayerCount: 2
Fore
SplineSet
109 -376 m 1
 109 1255 l 1
 463 1255 l 1
 474 1166 l 1
 260 1146 l 1
 260 -260 l 1
 476 -279 l 1
 466 -375 l 1
 109 -376 l 1
EndSplineSet
Colour: ffffff
EndChar

StartChar: bracketright
Encoding: 93 93 79
Width: 474
VWidth: 0
Flags: HMW
LayerCount: 2
Fore
SplineSet
0 -279 m 1
 217 -260 l 1
 217 1146 l 1
 1 1166 l 1
 13 1255 l 1
 366 1255 l 1
 368 -376 l 1
 10 -375 l 1
 0 -279 l 1
EndSplineSet
Colour: ffffff
EndChar

StartChar: brokenbar
Encoding: 166 166 80
Width: 335
VWidth: 0
Flags: HMW
LayerCount: 2
Back
SplineSet
177 -350 m 1
 301 431 l 1
 410 419 l 1
 286 -363 l 1
 177 -350 l 1
319 540 m 1
 431 1255 l 1
 540 1244 l 1
 423 528 l 1
 319 540 l 1
EndSplineSet
Fore
SplineSet
109 540 m 1
 109 1260 l 1
 227 1248 l 1
 225 529 l 1
 109 540 l 1
109 -366 m 1
 109 423 l 1
 228 411 l 1
 228 -380 l 1
 109 -366 l 1
EndSplineSet
Colour: ffffff
EndChar

StartChar: c
Encoding: 99 99 81
Width: 879
VWidth: 1691
Flags: HMW
LayerCount: 2
Fore
SplineSet
39 439 m 0
 39 659 180 947 523 947 c 0
 626 947 730 929 805 880 c 1
 784 602 l 1
 686 615 l 1
 664 775 l 1
 640 814 599 852 486 852 c 0
 332 852 233 719 233 498 c 0
 233 242 393 108 539 108 c 0
 676 108 743 147 809 191 c 1
 844 115 l 1
 780 51 673 -24 472 -24 c 0
 247 -24 39 138 39 439 c 0
EndSplineSet
Colour: ffffff
EndChar

StartChar: ccedilla
Encoding: 231 231 82
Width: 879
VWidth: 0
Flags: HM
LayerCount: 2
Fore
SplineSet
390 -334.934 m 1
 447 -315.934 476 -281.934 476 -251.934 c 0
 476 -217.934 438 -175.934 402 -141.934 c 1
 484.031 -23.9094 l 1
 480.059 -23.9696 476.048 -24 472 -24 c 0
 247 -24 39 138 39 439 c 0
 39 659 180 947 523 947 c 0
 626 947 730 929 805 880 c 1
 784 602 l 1
 686 615 l 1
 664 775 l 1
 640 814 599 852 486 852 c 0
 332 852 233 719 233 498 c 0
 233 242 393 108 539 108 c 0
 676 108 743 147 809 191 c 1
 844 115 l 1
 790.333 61.3326 706.429 -0.0696716 562.217 -18.4972 c 1
 521 -79.9336 l 1
 558 -112.934 610 -163.934 610 -230.934 c 0
 610 -309.934 525 -358.934 409 -392.934 c 1
 390 -334.934 l 1
EndSplineSet
Colour: ffffff
EndChar

StartChar: cedilla
Encoding: 184 184 83
Width: 341
VWidth: 0
Flags: HMW
LayerCount: 2
Fore
SplineSet
62 -331 m 1
 119 -312 148 -278 148 -248 c 0
 148 -214 110 -172 74 -138 c 1
 172 3 l 1
 246 3 l 1
 193 -76 l 1
 230 -109 282 -160 282 -227 c 0
 282 -306 197 -355 81 -389 c 1
 62 -331 l 1
EndSplineSet
Colour: ffffff
EndChar

StartChar: cent
Encoding: 162 162 84
Width: 808
VWidth: 0
Flags: HMW
LayerCount: 2
Fore
SplineSet
347 1154 m 1
 493 1171 l 1
 472.31 939.964 l 1
 634.865 938.122 707 864.998 707 787 c 0
 707 728 664 689 581 683 c 1
 553 750 506 846 419 846 c 0
 300 846 222 688 222 507 c 0
 222 340 311 90 519 90 c 0
 618 90 674 121 721 151 c 1
 746 93 l 1
 698.455 35.5873 590.555 -17.8016 475.72 -28.1838 c 1
 505 -250 l 1
 357 -266 l 1
 380.439 -26.2029 l 1
 172.348 2.79661 41 194.069 41 415 c 0
 41 670.01 194.343 874.151 375.063 926.777 c 1
 347 1154 l 1
EndSplineSet
Colour: ffffff
EndChar

StartChar: circumflex
Encoding: 710 710 85
Width: 584
VWidth: 0
Flags: HMW
LayerCount: 2
Fore
SplineSet
90 1387 m 1
 258 1566 l 1
 313 1581 l 1
 491 1395 l 1
 442 1358 l 1
 279 1468 l 1
 268 1468 l 1
 129 1357 l 1
 90 1387 l 1
EndSplineSet
Colour: ffffff
EndChar

StartChar: colon
Encoding: 58 58 86
Width: 422
VWidth: 0
Flags: HMW
LayerCount: 2
Back
SplineSet
439 1235 m 21
 571 1244 l 13
 106 -355 l 21
 -23 -363 l 13
 439 1235 l 21
EndSplineSet
Fore
SplineSet
99 747 m 0
 99 808 151 853 212 853 c 0
 273 853 325 805 325 744 c 0
 325 680 273 629 212 629 c 0
 150 629 99 683 99 747 c 0
99 119 m 0
 99 178 151 224 212 224 c 0
 273 224 325 176 325 117 c 0
 325 53 273 1 212 1 c 0
 150 1 99 55 99 119 c 0
EndSplineSet
Colour: ffffff
EndChar

StartChar: comma
Encoding: 44 44 87
Width: 434
VWidth: 0
Flags: HMW
LayerCount: 2
Back
SplineSet
-18 -244 m 1
 117 -209 192 -125 192 -61 c 0
 192 -7 162 36 91 36 c 0
 81 36 73 33 61 30 c 1
 56 51 54 61 54 84 c 0
 54 167 147 218 198 218 c 0
 267 218 345 183 345 31 c 0
 345 -65 267 -245 -7 -314 c 1
 -18 -244 l 1
EndSplineSet
Fore
SplineSet
54 -244 m 1
 185 -210 236 -134 236 -70 c 0
 236 -14 190 36 120 36 c 0
 110 36 100 35 90 34 c 1
 82 55 76 74 76 97 c 0
 76 177 148 218 198 218 c 0
 268 218 372 161 372 10 c 0
 372 -83 340 -243 77 -313 c 1
 54 -244 l 1
EndSplineSet
Colour: ffffff
EndChar

StartChar: copyright
Encoding: 169 169 88
Width: 1377
VWidth: 0
Flags: HMW
LayerCount: 2
Back
SplineSet
874 1191 m 0
 568 1191 268 948 268 509 c 0
 268 273 388 68 694 68 c 0
 1008 68 1311 309 1311 743 c 0
 1311 971 1186 1191 874 1191 c 0
1425 765 m 0
 1425 248 1055 -26 670 -26 c 0
 305 -26 152 229 152 492 c 0
 152 974 516 1282 888 1282 c 0
 1266 1282 1425 1023 1425 765 c 0
EndSplineSet
Fore
SplineSet
176 657 m 0
 176 329 387 92 683 92 c 0
 971 92 1205 325 1205 639 c 0
 1205 964 1019 1217 684 1217 c 0
 396 1217 176 961 176 657 c 0
53 645 m 0
 53 1026 346 1320 684 1320 c 0
 1079 1320 1327 1033 1327 649 c 0
 1327 292 1041 -15 675 -15 c 0
 309 -15 53 270 53 645 c 0
344.5 643.75 m 0
 344.5 896.2 521.3 1056 705.75 1056 c 0
 847.7 1056 910.6 993.1 910.6 925.95 c 0
 910.6 875.8 873.2 841.8 802.65 836.7 c 1
 778.85 893.65 739.75 976.1 665.8 976.1 c 0
 564.65 976.1 498.35 875.8 498.35 721.95 c 0
 498.35 580 574 367.5 750.8 367.5 c 0
 834.95 367.5 882.55 393.85 922.5 419.35 c 1
 943.75 370.05 l 1
 898.7 315.65 789.9 265.5 680.25 265.5 c 0
 476.25 265.5 344.5 439.75 344.5 643.75 c 0
EndSplineSet
Colour: ffffff
EndChar

StartChar: currency
Encoding: 164 164 89
Width: 763
VWidth: 0
Flags: HMW
LayerCount: 2
Fore
SplineSet
225 494 m 0
 225 386 289 313 381 313 c 0
 477 313 541 383 541 487 c 0
 541 598 477 670 380 670 c 0
 288 670 225 599 225 494 c 0
37 746 m 1
 120 827 l 1
 230 709 l 1
 273 745 335 768 384 768 c 0
 438 768 501 748 541 718 c 1
 652 830 l 1
 725 742 l 1
 611 636 l 1
 632 599 647 538 647 491 c 0
 647 441 631 379 604 342 c 1
 728 223 l 1
 644 143 l 1
 531 264 l 1
 485 236 423 217 376 217 c 0
 336 217 282 233 242 257 c 1
 133 136 l 1
 50 221 l 1
 165 332 l 1
 138 372 120 435 120 488 c 0
 120 534 136 592 159 628 c 1
 37 746 l 1
EndSplineSet
Colour: ffffff
EndChar

StartChar: d
Encoding: 100 100 90
Width: 1061
VWidth: 1691
Flags: HMW
LayerCount: 2
Fore
SplineSet
383 104 m 1
 438 104 l 2
 691 104 811 245 811 463 c 0
 811 708 691 842 445 842 c 0
 425 842 403 842 383 838 c 1
 383 104 l 1
36 0 m 1
 50 74 l 1
 192 129 l 1
 192 790 l 1
 40 820 l 1
 49 896 l 1
 215 927 360 945 482 945 c 0
 903 945 1022 727 1022 498 c 0
 1022 230 808 0 410 0 c 2
 36 0 l 1
EndSplineSet
Colour: ffffff
EndChar

StartChar: dagger
Encoding: 8224 8224 91
Width: 797
VWidth: 0
Flags: HMW
LayerCount: 2
Fore
SplineSet
37 712 m 1
 45 827 l 1
 342 819 l 1
 334 1255 l 1
 467 1244 l 1
 458 819 l 1
 764 827 l 1
 756 705 l 1
 458 716 l 1
 473 -363 l 1
 328 -351 l 1
 342 718 l 1
 37 712 l 1
EndSplineSet
Colour: ffffff
EndChar

StartChar: daggerdbl
Encoding: 8225 8225 92
Width: 829
VWidth: 0
Flags: HMW
LayerCount: 2
Fore
SplineSet
52 712 m 1
 59 827 l 1
 354 819 l 1
 347 1255 l 1
 480 1244 l 1
 470 819 l 1
 774 827 l 1
 768 705 l 1
 470 716 l 1
 461 429 l 1
 464 174 l 1
 777 181 l 1
 771 64 l 1
 464 73 l 1
 473 -363 l 1
 340 -352 l 1
 350 73 l 1
 62 64 l 1
 70 187 l 1
 350 175 l 1
 357 498 l 1
 354 718 l 1
 52 712 l 1
EndSplineSet
Colour: ffffff
EndChar

StartChar: degree
Encoding: 176 176 93
Width: 424
VWidth: 0
Flags: HMW
LayerCount: 2
Fore
SplineSet
123 1129 m 0
 123 1068 155 995 219 995 c 0
 273 995 304 1032 304 1105 c 0
 304 1167 271 1237 209 1237 c 0
 150 1237 123 1185 123 1129 c 0
32 1107 m 0
 32 1210 117 1304 225 1304 c 0
 341 1304 396 1237 396 1128 c 0
 396 1013 307 928 201 928 c 0
 99 928 32 990 32 1107 c 0
EndSplineSet
Colour: ffffff
EndChar

StartChar: dieresis
Encoding: 168 168 94
Width: 623
VWidth: 0
Flags: HMW
LayerCount: 2
Back
SplineSet
720 1542 m 0
 765 1542 801 1511 794 1465 c 0
 786 1415 740 1384 695 1384 c 0
 652 1384 615 1415 623 1465 c 0
 631 1513 679 1542 720 1542 c 0
453 1542 m 0
 498 1542 532 1511 525 1465 c 0
 517 1415 473 1384 428 1384 c 0
 385 1384 347 1415 355 1465 c 0
 363 1513 412 1542 453 1542 c 0
540 1255 m 0
EndSplineSet
Fore
SplineSet
360 1465 m 0
 360 1512 405 1542 445 1542 c 0
 489 1542 532 1511 532 1465 c 0
 532 1416 489 1383 445 1383 c 0
 402 1383 360 1416 360 1465 c 0
92 1465 m 0
 92 1512 137 1542 177 1542 c 0
 221 1542 263 1511 263 1465 c 0
 263 1416 221 1383 177 1383 c 0
 134 1383 92 1416 92 1465 c 0
EndSplineSet
Colour: ffffff
EndChar

StartChar: divide
Encoding: 247 247 95
Width: 932
VWidth: 0
Flags: HMW
LayerCount: 2
Fore
SplineSet
341 790 m 0
 341 854 396 903 460 903 c 0
 526 903 581 853 581 789 c 0
 581 722 526 666 460 666 c 0
 394 666 341 723 341 790 c 0
341 228 m 0
 341 292 396 341 460 341 c 0
 526 341 581 291 581 227 c 0
 581 160 526 104 460 104 c 0
 394 104 341 161 341 228 c 0
55 454 m 1
 67 560 l 1
 879 560 l 1
 868 454 l 1
 55 454 l 1
EndSplineSet
Colour: ffffff
EndChar

StartChar: dollar
Encoding: 36 36 96
Width: 859
VWidth: 0
Flags: HMW
LayerCount: 2
Back
SplineSet
888 885 m 1
 814 902 l 1
 796 1093 l 2
 794 1110 753 1151 697 1171 c 1
 628 730 l 1
 772 636 937 541 907 353 c 0
 876 153 692 20 495 -15 c 1
 479 -111 l 1
 380 -111 l 1
 395 -25 l 1
 390 -25 l 2
 245 -25 135 30 71 122 c 1
 126 390 l 1
 206 377 l 1
 228 187 l 1
 263 123 333 77 411 74 c 1
 484 527 l 1
 345 615 204 730 235 930 c 0
 268 1140 434 1247 611 1267 c 1
 624 1343 l 1
 723 1343 l 1
 712 1268 l 1
 791 1261 885 1235 951 1166 c 1
 949 1158 888 885 888 885 c 1
537 781 m 1
 599 1182 l 1
 513 1172 449 1119 431 1002 c 0
 416 910 453 827 537 781 c 1
576 494 m 1
 512 86 l 1
 600 107 688 167 708 291 c 0
 720 367 660 438 576 494 c 1
EndSplineSet
Fore
SplineSet
305 1041 m 1
 437 1058 l 1
 421.78 897.236 l 1
 530.589 884.832 617 830.64 617 734 c 0
 617 651 564 595 477 589 c 1
 463 746 396.574 816 321 816 c 0
 251 816 209 760 209 696 c 0
 209 509 648 487 648 220 c 0
 648 98.7726 544.677 5.72429 422.662 -23.9728 c 1
 427.441 -75.6486 432.221 -127.324 437 -179 c 1
 298 -197 l 1
 313.286 -33.3473 l 1
 150.867 -25.3167 50 55.5902 50 141 c 0
 50 208 99 265 182 271 c 1
 225 130 295 64 371 64 c 0
 441 64 503 91 503 165 c 0
 503 324 74 354 74 624 c 0
 74 729.603 153.563 871.672 320.233 896.291 c 1
 305 1041 l 1
EndSplineSet
Colour: ffffff
EndChar

StartChar: dotaccent
Encoding: 729 729 97
Width: 425
VWidth: 0
Flags: HMW
LayerCount: 2
Fore
SplineSet
92 1479 m 0
 92 1543 149 1593 211 1593 c 0
 277 1593 334 1542 334 1478 c 0
 334 1411 277 1355 211 1355 c 0
 145 1355 92 1412 92 1479 c 0
EndSplineSet
Colour: ffffff
EndChar

StartChar: e
Encoding: 101 101 98
Width: 925
VWidth: 1691
Flags: HMW
LayerCount: 2
Fore
SplineSet
37 851 m 1
 48 927 l 1
 845 927 l 1
 824 654 l 1
 725 667 l 1
 694 835 l 1
 383 835 l 1
 383 503 l 1
 560 503 l 1
 582 583 l 1
 680 597 l 1
 646 298 l 1
 555 285 l 1
 544 410 l 1
 383 410 l 1
 383 96 l 1
 728 96 l 1
 795 276 l 1
 889 263 l 1
 869 0 l 1
 44 0 l 1
 52 74 l 1
 189 121 l 1
 189 809 l 1
 37 851 l 1
EndSplineSet
Colour: ffffff
EndChar

StartChar: eacute
Encoding: 233 233 99
Width: 802
VWidth: 0
Flags: HMW
LayerCount: 2
Fore
SplineSet
413 1051 m 1
 536 1376 l 1
 647 1337 l 1
 464 1019 l 1
 413 1051 l 1
29 851 m 1
 40 927 l 1
 837 927 l 1
 816 654 l 1
 717 667 l 1
 686 835 l 1
 375 835 l 1
 375 503 l 1
 552 503 l 1
 574 583 l 1
 672 597 l 1
 638 298 l 1
 547 285 l 1
 536 410 l 1
 375 410 l 1
 375 96 l 1
 720 96 l 1
 787 276 l 1
 881 263 l 1
 861 0 l 1
 36 0 l 1
 44 74 l 1
 181 121 l 1
 181 809 l 1
 29 851 l 1
EndSplineSet
Colour: ffffff
EndChar

StartChar: ecircumflex
Encoding: 234 234 100
Width: 925
VWidth: 0
Flags: HMW
LayerCount: 2
Fore
SplineSet
285 1056 m 1
 453 1235 l 1
 508 1250 l 1
 686 1064 l 1
 637 1027 l 1
 474 1137 l 1
 463 1137 l 1
 324 1026 l 1
 285 1056 l 1
37 851 m 1
 48 927 l 1
 845 927 l 1
 824 654 l 1
 725 667 l 1
 694 835 l 1
 383 835 l 1
 383 503 l 1
 560 503 l 1
 582 583 l 1
 680 597 l 1
 646 298 l 1
 555 285 l 1
 544 410 l 1
 383 410 l 1
 383 96 l 1
 728 96 l 1
 795 276 l 1
 889 263 l 1
 869 0 l 1
 44 0 l 1
 52 74 l 1
 189 121 l 1
 189 809 l 1
 37 851 l 1
EndSplineSet
Colour: ffffff
EndChar

StartChar: edieresis
Encoding: 235 235 101
Width: 925
VWidth: 0
Flags: HMW
LayerCount: 2
Fore
SplineSet
524 1106 m 0
 524 1153 569 1183 609 1183 c 0
 653 1183 696 1152 696 1106 c 0
 696 1057 653 1024 609 1024 c 0
 566 1024 524 1057 524 1106 c 0
256 1106 m 0
 256 1153 301 1183 341 1183 c 0
 385 1183 427 1152 427 1106 c 0
 427 1057 385 1024 341 1024 c 0
 298 1024 256 1057 256 1106 c 0
37 851 m 1
 48 927 l 1
 845 927 l 1
 824 654 l 1
 725 667 l 1
 694 835 l 1
 383 835 l 1
 383 503 l 1
 560 503 l 1
 582 583 l 1
 680 597 l 1
 646 298 l 1
 555 285 l 1
 544 410 l 1
 383 410 l 1
 383 96 l 1
 728 96 l 1
 795 276 l 1
 889 263 l 1
 869 0 l 1
 44 0 l 1
 52 74 l 1
 189 121 l 1
 189 809 l 1
 37 851 l 1
EndSplineSet
Colour: ffffff
EndChar

StartChar: egrave
Encoding: 232 232 102
Width: 802
VWidth: 0
Flags: HMW
LayerCount: 2
Fore
SplineSet
275 1341 m 1
 390 1379 l 1
 522 1046 l 1
 466 1011 l 1
 275 1341 l 1
29 851 m 1
 40 927 l 1
 837 927 l 1
 816 654 l 1
 717 667 l 1
 686 835 l 1
 375 835 l 1
 375 503 l 1
 552 503 l 1
 574 583 l 1
 672 597 l 1
 638 298 l 1
 547 285 l 1
 536 410 l 1
 375 410 l 1
 375 96 l 1
 720 96 l 1
 787 276 l 1
 881 263 l 1
 861 0 l 1
 36 0 l 1
 44 74 l 1
 181 121 l 1
 181 809 l 1
 29 851 l 1
EndSplineSet
Colour: ffffff
EndChar

StartChar: eight
Encoding: 56 56 103
Width: 804
VWidth: 0
Flags: HMW
LayerCount: 2
Back
SplineSet
494 542 m 1xe8
 463 517 463 517 433 492 c 0
 413 475 394 458 377 438 c 0
 360 418 349 394 339 368 c 0
 329 342 324 310 324 274 c 0
 324 248 327 222 337 197 c 0
 347 172 360 149 377 129 c 0
 394 109 412 95 433 83 c 0
 454 71 477 64 502 64 c 0
 586 64 646 84 684 122 c 0
 722 160 740 209 740 272 c 0
 740 297 733 321 718 344 c 0
 703 367 685 392 662 413 c 0
 639 434 615 458 585 479 c 0
 542 512 540 511 494 542 c 1xe8
159 236 m 0
 159 304 183 365 231 419 c 0
 279 473 349 525 443 576 c 1
 444 585 l 1
 429 595 411 607 393 624 c 0
 375 641 357 659 340 680 c 0
 323 701 311 727 301 753 c 0
 291 779 286 806 286 836 c 0
 286 879 296 921 317 961 c 0
 338 1001 365 1036 400 1067 c 0
 435 1098 476 1123 522 1143 c 0
 568 1163 616 1173 667 1173 c 0
 710 1173 748 1166 781 1153 c 0
 814 1140 842 1124 865 1103 c 0
 888 1082 905 1055 917 1027 c 0
 929 999 935 968 935 935 c 0xd4
 935 904 929 870 917 839 c 0
 905 808 889 779 869 751 c 0
 849 723 824 700 796 679 c 0
 768 658 738 643 707 631 c 1
 704 621 l 1
 763 580 813 534 849 484 c 0
 885 434 903 381 903 327 c 0
 903 281 893 238 872 195 c 0
 851 152 819 114 779 81 c 0
 739 48 692 23 636 3 c 0
 580 -17 517 -26 446 -26 c 0
 405 -26 367 -20 332 -8 c 0
 297 4 266 20 241 43 c 0
 216 66 197 93 182 126 c 0
 167 159 159 195 159 236 c 0
646 661 m 1
 671 674 692 689 710 704 c 0
 728 719 743 736 755 756 c 0
 767 776 776 797 781 822 c 0
 786 847 789 876 789 907 c 0
 789 965 775 1010 745 1045 c 0
 715 1080 678 1098 633 1098 c 0
 602 1098 575 1092 552 1080 c 0
 529 1068 509 1055 492 1037 c 0
 475 1019 464 999 456 978 c 0
 448 957 443 934 443 913 c 0
 443 863 461 817 499 776 c 0
 537 735 587 697 646 661 c 1
EndSplineSet
Fore
SplineSet
249 977 m 0
 249 868 325 756 466 676 c 1
 506 720 552 778 552 906 c 0
 552 1014 495 1124 390 1124 c 0
 311 1124 249 1057 249 977 c 0
220 304 m 0
 220 185 301 66 406 66 c 0
 519 66 594 132 594 266 c 0
 594 374 475 465 330 555 c 1
 277 515 220 409 220 304 c 0
55 280 m 0
 55 393 127 499 271 589 c 1
 271 598 l 1
 197 642 100 753 100 887 c 0
 100 1055 242 1201 417 1201 c 0
 589 1201 700 1094 700 943 c 0
 700 826 650 731 534 645 c 1
 534 636 l 1
 681 544 752 430 752 308 c 0
 752 124 590 -27 360 -27 c 0
 176 -27 55 89 55 280 c 0
EndSplineSet
Colour: ffffff
EndChar

StartChar: emdash
Encoding: 8212 8212 104
Width: 1306
VWidth: 0
Flags: HMW
LayerCount: 2
Fore
SplineSet
87 409 m 1
 102 513 l 1
 1223 520 l 1
 1207 415 l 1
 87 409 l 1
EndSplineSet
Colour: ffffff
EndChar

StartChar: endash
Encoding: 8211 8211 105
Width: 795
VWidth: 0
Flags: HMW
LayerCount: 2
Fore
SplineSet
87 409 m 1
 102 513 l 1
 713 520 l 1
 697 415 l 1
 87 409 l 1
EndSplineSet
Colour: ffffff
EndChar

StartChar: equal
Encoding: 61 61 106
Width: 809
VWidth: 0
Flags: HMW
LayerCount: 2
Back
SplineSet
162 424 m 1
 776 424 l 1
 748 319 l 1
 134 319 l 1
 162 424 l 1
203 664 m 1
 817 664 l 1
 789 558 l 1
 175 558 l 1
 203 664 l 1
EndSplineSet
Fore
SplineSet
95 559 m 1
 105 663 l 1
 721 663 l 1
 709 559 l 1
 95 559 l 1
92 319 m 1
 102 424 l 1
 717 424 l 1
 706 319 l 1
 92 319 l 1
EndSplineSet
Colour: ffffff
EndChar

StartChar: eth
Encoding: 240 240 107
Width: 1121
VWidth: 0
Flags: HMW
LayerCount: 2
Fore
SplineSet
424 104 m 1
 479 104 l 2
 732 104 852 245 852 463 c 0
 852 708 732 842 486 842 c 0
 466 842 444 842 424 838 c 1
 424 507.082 l 1
 632 521 l 1
 620 430 l 1
 424 416.495 l 1
 424 104 l 1
83 393 m 1
 94 485 l 1
 233 494.301 l 1
 233 790 l 1
 81 820 l 1
 90 896 l 1
 256 927 401 945 523 945 c 0
 944 945 1063 727 1063 498 c 0
 1063 230 849 0 451 0 c 2
 77 0 l 1
 91 74 l 1
 233 129 l 1
 233 403.335 l 1
 83 393 l 1
EndSplineSet
Colour: ffffff
EndChar

StartChar: exclam
Encoding: 33 33 108
Width: 412
VWidth: 0
Flags: HMW
LayerCount: 2
Back
SplineSet
345 363 m 1xa0
 344 357 l 1
 258 377 l 1
 258 380 l 1
 284 702 327 1141 344 1250 c 2
 344 1253 l 1
 357 1281 446 1293 482 1293 c 0
 508 1293 545 1284 540 1253 c 0
 514 1085 423 685 345 363 c 1xa0
383 91 m 0xc0
 371 20 307 -36 238 -36 c 0
 169 -36 122 21 134 92 c 0
 144 160 210 210 276 210 c 0
 344 210 393 159 383 91 c 0xc0
EndSplineSet
Fore
SplineSet
109 1245 m 0
 109 1282 197 1292 240 1292 c 0
 267 1292 304 1284 304 1253 c 0
 304 1084 273 675 249 357 c 1
 162 376 l 1
 147 669 109 1072 109 1245 c 0
83 92 m 0
 83 159 140 210 206 210 c 0
 273 210 331 157 331 90 c 0
 331 20 276 -36 206 -36 c 0
 136 -36 83 22 83 92 c 0
EndSplineSet
Colour: ffffff
EndChar

StartChar: exclamdown
Encoding: 161 161 109
Width: 387
VWidth: 0
Flags: HMW
LayerCount: 2
Back
SplineSet
284 533 m 1xc0
 286 540 l 1
 372 520 l 1
 372 517 l 1
 346 195 299 -266 282 -375 c 2
 282 -378 l 1
 269 -406 180 -418 144 -418 c 0
 118 -418 81 -409 86 -378 c 0
 112 -210 206 211 284 533 c 1xc0
243 784 m 0xa0
 255 855 319 912 388 912 c 0
 457 912 504 854 492 783 c 0
 482 715 416 666 350 666 c 0
 282 666 233 716 243 784 c 0xa0
EndSplineSet
Fore
SplineSet
97 -378 m 0
 97 -210 124 212 151 534 c 1
 151 540 l 1
 240 520 l 1
 240 517 l 1
 264 195 294 -266 294 -375 c 2
 294 -378 l 1
 286 -406 198 -418 162 -418 c 0
 135 -418 97 -409 97 -378 c 0
70 784 m 0
 70 854 126 910 196 910 c 0
 266 910 320 853 320 783 c 0
 320 716 262 666 196 666 c 0
 129 666 70 717 70 784 c 0
EndSplineSet
Colour: ffffff
EndChar

StartChar: f
Encoding: 102 102 110
Width: 899
VWidth: 1691
Flags: HMW
LayerCount: 2
Fore
SplineSet
37 854 m 1
 48 930 l 1
 861 930 l 1
 832 658 l 1
 729 672 l 1
 708 838 l 1
 383 838 l 1
 383 470 l 1
 602 470 l 1
 627 554 l 1
 725 568 l 1
 698 276 l 1
 605 262 l 1
 589 378 l 1
 383 378 l 1
 380 122 l 1
 578 83 l 1
 565 0 l 1
 44 0 l 1
 52 74 l 1
 189 121 l 1
 189 812 l 1
 37 854 l 1
EndSplineSet
Colour: ffffff
EndChar

StartChar: five
Encoding: 53 53 111
Width: 700
VWidth: 0
Flags: HMW
LayerCount: 2
Back
SplineSet
266 41 m 1
 416 56 531 91 614 145 c 0
 697 199 740 270 740 358 c 0
 740 441 708 505 644 555 c 0
 580 605 474 634 327 644 c 1
 522 1141 l 1
 960 1169 l 1
 915 1016 l 1
 553 997 l 1
 471 784 l 1
 545 779 611 768 669 748 c 0
 727 728 775 701 813 670 c 0
 851 639 878 605 898 562 c 0
 918 519 928 473 928 423 c 0
 928 369 914 314 888 261 c 0
 862 208 823 159 770 116 c 0
 717 73 648 37 565 7 c 0
 482 -23 385 -41 271 -48 c 1
 266 41 l 1
EndSplineSet
Fore
SplineSet
-66 -159 m 0
 -66 -86 -25 -37 34 -26 c 1
 68 -96 146 -206 255 -206 c 0
 384 -206 479 -117 479 80 c 0
 479 278 347 395 76 426 c 1
 179 934 l 1
 623 974 l 1
 598 811 l 1
 240 788 l 1
 209 570 l 1
 516 540 663 376 663 145 c 0
 663 -60 466 -297 202 -297 c 0
 12 -297 -66 -217 -66 -159 c 0
EndSplineSet
Colour: ffffff
EndChar

StartChar: four
Encoding: 52 52 112
Width: 940
VWidth: 0
Flags: HMW
LayerCount: 2
Back
SplineSet
585 348 m 1
 109 348 l 1
 97 421 l 1
 806 1166 l 1
 865 1148 l 1
 860 1120 856 1086 849 1050 c 0
 839 994 839 994 829 931 c 0
 819 868 819 869 809 801 c 0
 802 756 796 712 791 667 c 2
 763 467 l 1
 1009 467 l 1
 976 345 l 1
 745 345 l 1
 700 15 l 1
 532 -12 l 1
 585 348 l 1
657 888 m 1
 269 467 l 1
 598 467 l 1
 657 888 l 1
EndSplineSet
Fore
SplineSet
169 211 m 1
 499 211 l 1
 499 676 l 1
 169 211 l 1
-9 164 m 1
 618 986 l 1
 683 968 l 1
 677 849 673 613 673 432 c 2
 673 211 l 1
 927 211 l 1
 910 86 l 1
 675 86 l 1
 675 -267 l 1
 500 -304 l 1
 500 89 l 1
 14 89 l 1
 -9 164 l 1
EndSplineSet
Colour: ffffff
EndChar

StartChar: g
Encoding: 103 103 113
Width: 1044
VWidth: 1691
Flags: HMW
LayerCount: 2
Fore
SplineSet
39 421 m 0
 39 734 283 947 573 947 c 0
 708 947 819 929 895 900 c 1
 871 608 l 1
 764 623 l 1
 738 788 l 1
 708 812 627 848 523 848 c 0
 382 848 243 742 243 480 c 0
 243 234 348 77 534 77 c 0
 639 77 680 86 706 112 c 1
 706 280 l 1
 520 318 l 1
 532 401 l 1
 1008 401 l 1
 994 317 l 1
 892 285 l 1
 892 29 l 1
 782 -14 658 -31 491 -31 c 0
 187 -31 39 168 39 421 c 0
EndSplineSet
Colour: ffffff
EndChar

StartChar: germandbls
Encoding: 223 223 114
Width: 1102
VWidth: 1691
Flags: HMW
LayerCount: 2
Back
SplineSet
35 0 m 5
 47 73 l 5
 199 116 l 5
 199 784 l 5
 50 784 l 5
 62 857 l 5
 200 879 l 5
 233 1167 433 1304 575 1304 c 4
 680 1304 762 1269 762 1189 c 4
 762 1140 706 1090 673 1077 c 5
 633 1126 559 1198 497 1198 c 4
 423 1198 372 1153 368 981 c 5
 366 873 l 5
 623 873 l 5
 611 784 l 5
 366 784 l 5
 366 121 l 5
 611 83 l 5
 604 0 l 5
 35 0 l 5
EndSplineSet
Fore
SplineSet
10 0 m 1
 18 73 l 1
 152 110 l 1
 152 548 l 2
 152 830 351 949 653 949 c 0
 805 949 1046 914 1046 769 c 0
 1046 693 1003 660 925 634 c 1
 899 732 853 843 746 843 c 0
 685 843 625 809 625 724 c 0
 625 514 1084 495 1084 244 c 0
 1084 81 926 -24 759 -24 c 0
 593 -24 497 7 443 59 c 1
 476 309 l 1
 578 295 l 1
 597 144 l 1
 638 101 671 75 773 75 c 0
 834 75 910 106 910 179 c 0
 910 347 467 371 467 641 c 0
 467 767 550 842 635 867 c 1
 637 870 l 1
 433.366 883.576 341 798.989 341 571 c 2
 341 0 l 1
 10 0 l 1
EndSplineSet
AlternateSubs2: "Alternate Substitution in Latin lookup 0-1" germandbls.alt
Colour: ffffff
EndChar

StartChar: grave
Encoding: 96 96 115
Width: 535
VWidth: 0
Flags: HMW
LayerCount: 2
Fore
SplineSet
122 1659 m 1
 237 1697 l 1
 369 1364 l 1
 313 1329 l 1
 122 1659 l 1
EndSplineSet
Colour: ffffff
EndChar

StartChar: greater
Encoding: 62 62 116
Width: 727
VWidth: 0
Flags: HMW
LayerCount: 2
Back
SplineSet
718 428 m 1
 83 -83 l 1
 31 -13 l 1
 487 454 l 1
 195 902 l 1
 263 973 l 1
 722 456 l 1
 718 428 l 1
EndSplineSet
Fore
SplineSet
59 -13 m 1
 519 434 l 1
 79 900 l 1
 135 973 l 1
 755 472 l 1
 756 415 l 1
 122 -83 l 1
 59 -13 l 1
EndSplineSet
Colour: ffffff
EndChar

StartChar: guillemotleft
Encoding: 171 171 117
Width: 643
VWidth: 0
Flags: HMW
LayerCount: 2
Back
SplineSet
401 469 m 1
 725 821 l 1
 760 761 l 1
 547 461 l 1
 664 140 l 1
 601 78 l 1
 400 449 l 1
 401 469 l 1
154 469 m 1
 477 821 l 1
 512 761 l 1
 299 461 l 1
 416 140 l 1
 353 78 l 1
 152 449 l 1
 154 469 l 1
EndSplineSet
Fore
SplineSet
270 469 m 1
 538 820 l 1
 583 761 l 1
 418 461 l 1
 586 141 l 1
 534 77 l 1
 271 449 l 1
 270 469 l 1
23 469 m 1
 292 820 l 1
 335 761 l 1
 171 461 l 1
 338 141 l 1
 286 77 l 1
 24 449 l 1
 23 469 l 1
EndSplineSet
Colour: ffffff
EndChar

StartChar: guillemotright
Encoding: 187 187 118
Width: 645
VWidth: 0
Flags: HMW
LayerCount: 2
Fore
SplineSet
308 141 m 1
 476 461 l 1
 311 761 l 1
 355 820 l 1
 623 469 l 1
 621 449 l 1
 360 77 l 1
 308 141 l 1
61 141 m 1
 228 461 l 1
 64 761 l 1
 108 820 l 1
 376 469 l 1
 374 449 l 1
 113 77 l 1
 61 141 l 1
EndSplineSet
Colour: ffffff
EndChar

StartChar: guilsinglleft
Encoding: 8249 8249 119
Width: 396
VWidth: 0
Flags: HMW
LayerCount: 2
Fore
SplineSet
23 469 m 1
 292 820 l 1
 335 761 l 1
 171 461 l 1
 338 141 l 1
 286 77 l 1
 24 449 l 1
 23 469 l 1
EndSplineSet
Colour: ffffff
EndChar

StartChar: guilsinglright
Encoding: 8250 8250 120
Width: 397
VWidth: 0
Flags: HMW
LayerCount: 2
Fore
SplineSet
61 141 m 1
 228 461 l 1
 64 761 l 1
 108 820 l 1
 376 469 l 1
 374 449 l 1
 113 77 l 1
 61 141 l 1
EndSplineSet
Colour: ffffff
EndChar

StartChar: h
Encoding: 104 104 121
Width: 1195
VWidth: 1691
Flags: HMW
LayerCount: 2
Fore
SplineSet
37 854 m 1
 48 930 l 1
 532 930 l 1
 522 854 l 1
 384 816 l 1
 384 508 l 1
 809 508 l 1
 809 812 l 1
 656 854 l 1
 667 930 l 1
 1153 930 l 1
 1141 854 l 1
 1004 816 l 1
 1004 114 l 1
 1156 80 l 1
 1146 0 l 1
 663 0 l 1
 673 74 l 1
 809 121 l 1
 809 405 l 1
 384 405 l 1
 384 114 l 1
 538 80 l 1
 525 0 l 1
 44 0 l 1
 52 74 l 1
 189 121 l 1
 189 812 l 1
 37 854 l 1
EndSplineSet
Colour: ffffff
EndChar

StartChar: hyphen
Encoding: 45 45 122
Width: 581
VWidth: 0
Flags: HMW
LayerCount: 2
Back
SplineSet
170 499 m 1xa0
 580 517 l 1
 553 416 l 1x60
 142 398 l 1
 170 499 l 1xa0
EndSplineSet
Fore
SplineSet
81 398 m 1
 92 498 l 1
 500 517 l 1
 489 415 l 1
 81 398 l 1
EndSplineSet
Colour: ffffff
EndChar

StartChar: i
Encoding: 105 105 123
Width: 574
VWidth: 1691
Flags: HMW
LayerCount: 2
Fore
SplineSet
37 854 m 1
 48 930 l 1
 129 930 379 930 532 930 c 1
 522 854 l 1
 383 816 l 1
 383 114 l 1
 534 80 l 1
 524 0 l 1
 44 0 l 1
 52 74 l 1
 189 121 l 1
 189 812 l 1
 37 854 l 1
EndSplineSet
Colour: ffffff
EndChar

StartChar: iacute
Encoding: 237 237 124
Width: 574
VWidth: 0
Flags: HMW
LayerCount: 2
Fore
SplineSet
207 1055.1 m 1
 330 1380.1 l 1
 441 1341.1 l 1
 258 1023.1 l 1
 207 1055.1 l 1
37 854 m 1
 48 930 l 1
 129 930 379 930 532 930 c 1
 522 854 l 1
 383 816 l 1
 383 114 l 1
 534 80 l 1
 524 0 l 1
 44 0 l 1
 52 74 l 1
 189 121 l 1
 189 812 l 1
 37 854 l 1
EndSplineSet
Colour: ffffff
EndChar

StartChar: icircumflex
Encoding: 238 238 125
Width: 574
VWidth: 0
Flags: HMW
LayerCount: 2
Fore
SplineSet
90 1057 m 1
 258 1236 l 1
 313 1251 l 1
 491 1065 l 1
 442 1028 l 1
 279 1138 l 1
 268 1138 l 1
 129 1027 l 1
 90 1057 l 1
37 854 m 1
 48 930 l 1
 129 930 379 930 532 930 c 1
 522 854 l 1
 383 816 l 1
 383 114 l 1
 534 80 l 1
 524 0 l 1
 44 0 l 1
 52 74 l 1
 189 121 l 1
 189 812 l 1
 37 854 l 1
EndSplineSet
Colour: ffffff
EndChar

StartChar: idieresis
Encoding: 239 239 126
Width: 574
VWidth: 0
Flags: HMW
LayerCount: 2
Fore
SplineSet
345 1109 m 0
 345 1156 390 1186 430 1186 c 0
 474 1186 517 1155 517 1109 c 0
 517 1060 474 1027 430 1027 c 0
 387 1027 345 1060 345 1109 c 0
77 1109 m 0
 77 1156 122 1186 162 1186 c 0
 206 1186 248 1155 248 1109 c 0
 248 1060 206 1027 162 1027 c 0
 119 1027 77 1060 77 1109 c 0
37 854 m 1
 48 930 l 1
 129 930 379 930 532 930 c 1
 522 854 l 1
 383 816 l 1
 383 114 l 1
 534 80 l 1
 524 0 l 1
 44 0 l 1
 52 74 l 1
 189 121 l 1
 189 812 l 1
 37 854 l 1
EndSplineSet
Colour: ffffff
EndChar

StartChar: igrave
Encoding: 236 236 127
Width: 574
VWidth: 0
Flags: HMW
LayerCount: 2
Fore
SplineSet
102 1340.1 m 1
 217 1378.1 l 1
 349 1045.1 l 1
 293 1010.1 l 1
 102 1340.1 l 1
37 854 m 1
 48 930 l 1
 129 930 379 930 532 930 c 1
 522 854 l 1
 383 816 l 1
 383 114 l 1
 534 80 l 1
 524 0 l 1
 44 0 l 1
 52 74 l 1
 189 121 l 1
 189 812 l 1
 37 854 l 1
EndSplineSet
Colour: ffffff
EndChar

StartChar: j
Encoding: 106 106 128
Width: 563
VWidth: 1691
Flags: HMW
LayerCount: 2
Fore
SplineSet
-51 -237 m 1
 104 -100 185 18 185 167 c 2
 185 812 l 1
 34 854 l 1
 44 930 l 1
 529 930 l 1
 519 854 l 1
 379 816 l 1
 379 305 l 2
 379 -58 290 -159 3 -326 c 1
 -51 -237 l 1
EndSplineSet
Colour: ffffff
EndChar

StartChar: k
Encoding: 107 107 129
Width: 1115
VWidth: 1691
Flags: HMW
LayerCount: 2
Fore
SplineSet
413 466 m 1
 447 499 496 548 559 616 c 2
 744 815 l 1
 626 854 l 1
 634 930 l 1
 1047 930 l 1
 1035 851 l 1
 895 811 l 1
 597 492 l 1
 766 287 l 2
 839 199 934.778 110.247 1032 83 c 2
 1078 70 l 1
 1068 1 l 1
 1022 -15 977 -21 937 -21 c 0
 801.494 -21 682 69 610 170 c 2
 414 445 l 1
 413 466 l 1
37 854 m 1
 51 930 l 1
 531 930 l 1
 521 854 l 1
 389 807 l 1
 389 124 l 1
 558 80 l 1
 547 0 l 1
 44 0 l 1
 54 74 l 1
 196 129 l 1
 196 803 l 1
 37 854 l 1
EndSplineSet
Colour: ffffff
EndChar

StartChar: l
Encoding: 108 108 130
Width: 929
VWidth: 1691
Flags: HMW
LayerCount: 2
Fore
SplineSet
37 854 m 1
 50 930 l 1
 550 930 l 1
 540 854 l 1
 389 807 l 1
 389 96 l 1
 695 96 l 1
 790 295 l 1
 892 281 l 1
 864 0 l 1
 50 0 l 1
 59 74 l 1
 195 121 l 1
 195 803 l 1
 37 854 l 1
EndSplineSet
Colour: ffffff
EndChar

StartChar: less
Encoding: 60 60 131
Width: 713
VWidth: 0
Flags: HMW
LayerCount: 2
Fore
SplineSet
756 -13 m 1
 693 -83 l 1
 59 415 l 1
 60 472 l 1
 680 973 l 1
 736 900 l 1
 296 434 l 1
 756 -13 l 1
EndSplineSet
Colour: ffffff
EndChar

StartChar: logicalnot
Encoding: 172 172 132
Width: 910
VWidth: 0
Flags: HMW
LayerCount: 2
Back
SplineSet
200 664 m 1
 945 664 l 1
 897 350 l 1
 788 332 l 1
 824 558 l 1
 172 558 l 1
 200 664 l 1
EndSplineSet
Fore
SplineSet
74 559 m 1
 86 663 l 1
 830 663 l 1
 832 351 l 1
 726 332 l 1
 726 559 l 1
 74 559 l 1
EndSplineSet
Colour: ffffff
EndChar

StartChar: m
Encoding: 109 109 133
Width: 1449
VWidth: 1691
Flags: HMW
LayerCount: 2
Fore
SplineSet
35 0 m 1
 46 74 l 1
 183 121 l 1
 246 812 l 1
 93 854 l 1
 103 930 l 1
 460 930 l 1
 544 736 l 1
 725 322 l 1
 919 769 l 1
 993 930 l 1
 1367 930 l 1
 1357 854 l 1
 1219 816 l 1
 1261 114 l 1
 1413 80 l 1
 1403 0 l 1
 917 0 l 1
 928 74 l 1
 1074 121 l 1
 1041 719 l 1
 752 60 l 1
 624 41 l 1
 358 663 l 1
 315 114 l 1
 468 80 l 1
 455 0 l 1
 35 0 l 1
EndSplineSet
Colour: ffffff
EndChar

StartChar: macron
Encoding: 175 175 134
Width: 637
VWidth: 0
Flags: HMW
LayerCount: 2
Fore
SplineSet
92 1379 m 1
 105 1479 l 1
 547 1479 l 1
 534 1379 l 1
 92 1379 l 1
EndSplineSet
Colour: ffffff
EndChar

StartChar: multiply
Encoding: 215 215 135
Width: 604
VWidth: 0
Flags: HMW
LayerCount: 2
Fore
SplineSet
67 310 m 1
 223 462 l 1
 67 619 l 1
 151 685 l 1
 304 532 l 1
 469 692 l 1
 534 608 l 1
 378 458 l 1
 537 297 l 1
 454 231 l 1
 298 388 l 1
 134 228 l 1
 67 310 l 1
EndSplineSet
Colour: ffffff
EndChar

StartChar: n
Encoding: 110 110 136
Width: 1120
VWidth: 1691
Flags: HMW
LayerCount: 2
Fore
SplineSet
37 854 m 1
 48 930 l 1
 358 930 l 1
 831 275 l 1
 831 812 l 1
 679 854 l 1
 691 930 l 1
 1133 930 l 1
 1120 854 l 1
 953 816 l 1
 953 11 l 1
 800 -20 l 1
 317 647 l 1
 317 114 l 1
 471 80 l 1
 460 0 l 1
 44 0 l 1
 52 74 l 1
 189 121 l 1
 189 803 l 1
 37 854 l 1
EndSplineSet
Colour: ffffff
EndChar

StartChar: nine
Encoding: 57 57 138
Width: 778
VWidth: 0
Flags: HMW
LayerCount: 2
Back
SplineSet
745 562 m 1
 730 545 713 530 692 517 c 0
 671 504 649 492 626 484 c 0
 603 476 580 467 555 462 c 0
 530 457 508 456 487 456 c 0
 444 456 406 464 373 479 c 0
 340 494 312 512 289 538 c 0
 266 564 250 596 238 631 c 0
 226 666 220 702 220 740 c 0
 220 801 235 859 261 912 c 0
 287 965 322 1010 365 1050 c 0
 408 1090 456 1123 509 1146 c 0
 562 1169 611 1182 662 1182 c 0
 718 1182 766 1173 806 1153 c 0
 846 1133 878 1106 903 1073 c 0
 928 1040 948 1003 960 958 c 0
 972 913 978 867 978 819 c 0
 978 718 960 621 925 527 c 0
 890 433 842 348 779 272 c 0
 716 196 643 132 555 79 c 0
 467 26 370 -8 266 -26 c 1
 253 46 l 1
 336 71 406 99 464 134 c 0
 522 169 571 208 611 251 c 0
 651 294 684 340 707 393 c 0
 730 446 748 503 761 562 c 1
 745 562 l 1
644 1103 m 0
 599 1103 561 1095 528 1078 c 0
 495 1061 470 1039 449 1011 c 0
 428 983 413 950 403 912 c 0
 393 874 388 833 388 788 c 0
 388 758 392 730 400 704 c 0
 408 678 419 652 434 631 c 0
 449 610 469 594 492 581 c 0
 515 568 542 562 573 562 c 0
 590 562 608 563 628 568 c 0
 648 573 667 578 685 585 c 0
 703 592 722 601 737 611 c 0
 752 621 765 634 775 647 c 1
 783 668 789 693 796 723 c 0
 803 753 806 791 806 837 c 0
 806 872 802 905 794 938 c 0
 786 971 776 997 761 1022 c 0
 746 1047 730 1065 710 1080 c 0
 690 1095 669 1103 644 1103 c 0
EndSplineSet
Fore
SplineSet
208 607 m 0
 208 424 262 338 387 338 c 0
 457 338 519 374 550 424 c 1
 558 470 557 525 557 565 c 0
 557 729 491 891 375 891 c 0
 275 891 208 813 208 607 c 0
25 581 m 0
 25 800 199 972 390 972 c 0
 653 972 744 755 744 521 c 0
 744 186 479 -177 148 -282 c 1
 125 -208 l 1
 417 -84 504 140 544 338 c 1
 532 338 l 1
 483 271 401 230 314 230 c 0
 120 230 25 356 25 581 c 0
EndSplineSet
Colour: ffffff
EndChar

StartChar: ntilde
Encoding: 241 241 139
Width: 1120
VWidth: 0
Flags: HM
LayerCount: 2
Fore
SplineSet
328 1048 m 1
 328 1048 368 1202 464 1190 c 2
 690 1161 l 2
 715 1158 746 1201 746 1201 c 1
 795 1199 l 1
 795 1199 748 1043 651 1056 c 2
 426 1088 l 2
 398 1092 367 1039 367 1039 c 1
 328 1048 l 1
37 854 m 1
 48 930 l 1
 358 930 l 1
 831 275 l 1
 831 812 l 1
 679 854 l 1
 691 930 l 1
 1133 930 l 1
 1120 854 l 1
 953 816 l 1
 953 11 l 1
 800 -20 l 1
 317 647 l 1
 317 114 l 1
 471 80 l 1
 460 0 l 1
 44 0 l 1
 52 74 l 1
 189 121 l 1
 189 803 l 1
 37 854 l 1
EndSplineSet
Colour: ffffff
EndChar

StartChar: numbersign
Encoding: 35 35 140
Width: 859
VWidth: 0
Flags: HMW
LayerCount: 2
Fore
SplineSet
63 561 m 1
 97 686 l 1
 276.236 686 l 1
 315 941 l 1
 426 951 l 1
 386.113 686 l 1
 550.5 686 l 1
 589 941 l 1
 700 950 l 1
 659.95 686 l 1
 846 686 l 1
 815 561 l 1
 640.988 561 l 1
 611.709 368 l 1
 789 368 l 1
 758 243 l 1
 592.746 243 l 1
 553 -19 l 1
 443 -26 l 1
 483.614 243 l 1
 319.435 243 l 1
 280 -19 l 1
 168 -26 l 1
 208.892 243 l 1
 10 243 l 1
 43 368 l 1
 227.895 368 l 1
 257.234 561 l 1
 63 561 l 1
367.299 561 m 1
 338.249 368 l 1
 502.487 368 l 1
 531.627 561 l 1
 367.299 561 l 1
EndSplineSet
Colour: ffffff
EndChar

StartChar: o
Encoding: 111 111 141
Width: 1034
VWidth: 1691
Flags: HMW
LayerCount: 2
Fore
SplineSet
245 515 m 0
 245 300 326 79 528 79 c 0
 733 79 781 248 781 412 c 0
 781 618 700 851 500 851 c 0
 296 851 245 690 245 515 c 0
38 458 m 0
 38 746 229 947 538 947 c 0
 824 947 995 721 995 458 c 0
 995 199 813 -27 488 -27 c 0
 218 -27 38 186 38 458 c 0
EndSplineSet
Colour: ffffff
EndChar

StartChar: oacute
Encoding: 243 243 142
Width: 1034
VWidth: 0
Flags: HMW
LayerCount: 2
Fore
SplineSet
458.059 1051.1 m 1
 581.059 1376.1 l 1
 692.059 1337.1 l 1
 509.059 1019.1 l 1
 458.059 1051.1 l 1
245 515 m 0
 245 300 326 79 528 79 c 0
 733 79 781 248 781 412 c 0
 781 618 700 851 500 851 c 0
 296 851 245 690 245 515 c 0
38 458 m 0
 38 746 229 947 538 947 c 0
 824 947 995 721 995 458 c 0
 995 199 813 -27 488 -27 c 0
 218 -27 38 186 38 458 c 0
EndSplineSet
Colour: ffffff
EndChar

StartChar: ocircumflex
Encoding: 244 244 143
Width: 1034
VWidth: 0
Flags: HMW
LayerCount: 2
Fore
SplineSet
323 1049 m 1
 491 1228 l 1
 546 1243 l 1
 724 1057 l 1
 675 1020 l 1
 512 1130 l 1
 501 1130 l 1
 362 1019 l 1
 323 1049 l 1
245 515 m 0
 245 300 326 79 528 79 c 0
 733 79 781 248 781 412 c 0
 781 618 700 851 500 851 c 0
 296 851 245 690 245 515 c 0
38 458 m 0
 38 746 229 947 538 947 c 0
 824 947 995 721 995 458 c 0
 995 199 813 -27 488 -27 c 0
 218 -27 38 186 38 458 c 0
EndSplineSet
Colour: ffffff
EndChar

StartChar: odieresis
Encoding: 246 246 144
Width: 1034
VWidth: 0
Flags: HMW
LayerCount: 2
Fore
SplineSet
574 1121 m 0
 574 1168 619 1198 659 1198 c 0
 703 1198 746 1167 746 1121 c 0
 746 1072 703 1039 659 1039 c 0
 616 1039 574 1072 574 1121 c 0
306 1121 m 0
 306 1168 351 1198 391 1198 c 0
 435 1198 477 1167 477 1121 c 0
 477 1072 435 1039 391 1039 c 0
 348 1039 306 1072 306 1121 c 0
245 515 m 0
 245 300 326 79 528 79 c 0
 733 79 781 248 781 412 c 0
 781 618 700 851 500 851 c 0
 296 851 245 690 245 515 c 0
38 458 m 0
 38 746 229 947 538 947 c 0
 824 947 995 721 995 458 c 0
 995 199 813 -27 488 -27 c 0
 218 -27 38 186 38 458 c 0
EndSplineSet
Colour: ffffff
EndChar

StartChar: ograve
Encoding: 242 242 145
Width: 1034
VWidth: 0
Flags: HMW
LayerCount: 2
Fore
SplineSet
325.059 1346.1 m 1
 440.059 1384.1 l 1
 572.059 1051.1 l 1
 516.059 1016.1 l 1
 325.059 1346.1 l 1
245 515 m 0
 245 300 326 79 528 79 c 0
 733 79 781 248 781 412 c 0
 781 618 700 851 500 851 c 0
 296 851 245 690 245 515 c 0
38 458 m 0
 38 746 229 947 538 947 c 0
 824 947 995 721 995 458 c 0
 995 199 813 -27 488 -27 c 0
 218 -27 38 186 38 458 c 0
EndSplineSet
Colour: ffffff
EndChar

StartChar: one
Encoding: 49 49 146
Width: 588
VWidth: 0
Flags: HMW
LayerCount: 2
Back
SplineSet
599 111 m 1
 860 81 l 1
 841 0 l 5
 130 0 l 1
 149 73 l 1
 431 117 l 1
 557 1006 l 1
 292 1006 l 1
 309 1082 l 1
 720 1156 l 1
 746 1156 l 1
 599 111 l 1
EndSplineSet
Fore
SplineSet
35 0 m 1
 44 74 l 1
 228 121 l 1
 228 802 l 1
 55 805 l 1
 64 882 l 1
 368 956 l 1
 396 956 l 1
 396 114 l 1
 585 80 l 1
 575 0 l 1
 35 0 l 1
EndSplineSet
Colour: ffffff
EndChar

StartChar: onehalf
Encoding: 189 189 147
Width: 1736
VWidth: 0
Flags: HMW
LayerCount: 2
Fore
SplineSet
784 2 m 1
 792 109 l 1
 947 232 l 1
 1051 317 1130 401 1130 476 c 0
 1130 548 1115 624 1021 624 c 0
 972 624 932 598 917 566 c 1
 895 437 l 1
 827 442 l 1
 812 612 l 1
 853 689 984 728 1085 728 c 0
 1238 728 1326 660 1326 542 c 0
 1326 389 1178 274 1015 167 c 2
 948 123 l 1
 1218 123 l 1
 1297 276 l 1
 1354 255 l 1
 1335 2 l 1
 784 2 l 1
139 -10 m 1
 546 588 l 1
 937 1210 l 1
 1113 1207 l 1
 1111 1178 l 1
 710 591 l 1
 339 -32 l 1
 139 -10 l 1
-52 531 m 1
 -48 605 l 1
 105 630 l 1
 105 1122 l 1
 -40 1122 l 1
 -36 1199 l 1
 266 1245 l 1
 285 1245 l 1
 285 627 l 1
 437 614 l 1
 431 531 l 1
 -52 531 l 1
EndSplineSet
Colour: ffffff
EndChar

StartChar: onequarter
Encoding: 188 188 148
Width: 1736
VWidth: 0
Flags: HMW
LayerCount: 2
Fore
SplineSet
800 272 m 1
 990 272 l 1
 990 508 l 1
 800 272 l 1
693 270 m 1
 1103 737 l 1
 1160 726 l 1
 1155 655 1151 539 1151 430 c 2
 1151 272 l 1
 1299 272 l 1
 1290 175 l 1
 1151 175 l 1
 1151 83 l 1
 1272 65 l 1
 1266 0 l 1
 852 0 l 1
 856 58 l 1
 993 85 l 1
 993 178 l 1
 706 178 l 1
 693 270 l 1
159 -10 m 1
 566 588 l 1
 957 1210 l 1
 1113 1207 l 1
 1111 1178 l 1
 710 591 l 1
 339 -32 l 1
 159 -10 l 1
-52 531 m 1
 -48 605 l 1
 105 630 l 1
 105 1122 l 1
 -40 1122 l 1
 -36 1199 l 1
 266 1245 l 1
 285 1245 l 1
 285 627 l 1
 437 614 l 1
 431 531 l 1
 -52 531 l 1
EndSplineSet
Colour: ffffff
EndChar

StartChar: one.superior
Encoding: 185 185 149
Width: 512
VWidth: 0
Flags: HMW
LayerCount: 2
Fore
SplineSet
23 531 m 1
 27 605 l 1
 180 630 l 1
 180 1122 l 1
 35 1122 l 1
 39 1199 l 1
 341 1245 l 1
 360 1245 l 1
 360 627 l 1
 512 614 l 1
 506 531 l 1
 23 531 l 1
EndSplineSet
Colour: ffffff
EndChar

StartChar: ordfeminine
Encoding: 170 170 150
Width: 830
VWidth: 0
Flags: HMW
LayerCount: 2
Back
SplineSet
128.2 378.4 m 0xba
 128.2 496 236.2 613.6 497 632 c 1
 497 676 l 2
 497 784 465.8 889.6 355.4 889.6 c 0
 278.6 889.6 277.8 848.8 266.6 717.6 c 1
 224.2 717.6 155.4 720.8 155.4 800 c 0
 155.4 887.2 318.6 964 429 964 c 0
 571.4 964 626.6 887.2 626.6 718.4 c 2
 626.6 428 l 2
 626.6 354.4 641.8 332.8 716.2 320.8 c 2
 756.2 313.6 l 1
 745.8 244.8 l 1x76
 708.2 240 684.2 229.6 637 229.6 c 0
 544.2 229.6 513 289.6 513 336.8 c 2
 513 348.8 l 1
 504.2 348.8 l 1
 482.6 306.4 416.2 224.8 285 224.8 c 0
 201 224.8 128.2 280.8 128.2 378.4 c 0xba
268.2 416 m 0xba
 268.2 376 298.6 323.2 357.8 323.2 c 0
 413.8 323.2 470.6 364.8 497 394.4 c 1
 497 586.4 l 1
 322.6 552 268.2 492.8 268.2 416 c 0xba
EndSplineSet
Fore
SplineSet
293 716 m 0
 293 676 316 627 379 627 c 0
 439 627 468 664 496 694 c 1
 496 873 l 1
 344 846 293 793 293 716 c 0
125 668 m 0
 125 786 212 932 496 932 c 1
 496 966 l 2
 496 1074 488 1170 386 1170 c 0
 316 1170 304 1114 292 978 c 1
 212 970 154 1014 154 1100 c 0
 154 1187 327 1254 444 1254 c 0
 595 1254 654 1177 654 1008 c 2
 654 748 l 2
 654 674 674 648 749 635 c 2
 792 628 l 1
 781 566 l 1
 740 529 715 520 665 520 c 0
 566 520 514 580 514 627 c 2
 514 639 l 1
 504 639 l 1
 481 597 430 515 291 515 c 0
 202 515 125 570 125 668 c 0
EndSplineSet
Colour: ffffff
EndChar

StartChar: ordmasculine
Encoding: 186 186 151
Width: 934
VWidth: 0
Flags: HMW
LayerCount: 2
Fore
SplineSet
286 933 m 0
 286 768 325 592 492 592 c 0
 612 592 648 710 648 823 c 0
 648 981 610 1174 448 1174 c 0
 320 1174 286 1059 286 933 c 0
114 876 m 0
 114 1119 294 1258 484 1258 c 0
 693 1258 820 1108 820 888 c 0
 820 665 662 514 464 514 c 0
 240 514 114 670 114 876 c 0
EndSplineSet
Colour: ffffff
EndChar

StartChar: oslash
Encoding: 248 248 152
Width: 933
VWidth: 0
Flags: HMW
LayerCount: 2
Fore
SplineSet
16 458 m 0
 16 746 207 947 516 947 c 0
 615.789 947 701.578 919.487 770.988 872.489 c 1
 828 947 l 1
 983 954 l 1
 859.823 791.667 l 1
 933.176 703.222 973 584.919 973 458 c 0
 973 199 791 -27 466 -27 c 0
 381.76 -27 306.281 -6.26585 242.297 30.5253 c 1
 187 -41 l 1
 24 -46 l 1
 148.879 103.695 l 1
 64.4874 191.55 16 316.828 16 458 c 0
321.677 167.378 m 1
 366.097 113.032 426.732 79 506 79 c 0
 711 79 759 248 759 412 c 0
 759 493.582 746.296 579.399 718.528 653.301 c 1
 321.677 167.378 l 1
283.658 225.879 m 1
 685.404 723.049 l 1
 640.031 799.288 572.221 851 478 851 c 0
 274 851 223 690 223 515 c 0
 223 411.596 241.736 306.805 283.658 225.879 c 1
EndSplineSet
Colour: ffffff
EndChar

StartChar: otilde
Encoding: 245 245 153
Width: 1034
VWidth: 0
Flags: HMW
LayerCount: 2
Fore
SplineSet
279 1048 m 1
 279 1048 319 1202 415 1190 c 2
 641 1161 l 2
 666 1158 697 1201 697 1201 c 1
 746 1199 l 1
 746 1199 699 1043 602 1056 c 2
 377 1088 l 2
 349 1092 318 1039 318 1039 c 1
 279 1048 l 1
245 515 m 0
 245 300 326 79 528 79 c 0
 733 79 781 248 781 412 c 0
 781 618 700 851 500 851 c 0
 296 851 245 690 245 515 c 0
38 458 m 0
 38 746 229 947 538 947 c 0
 824 947 995 721 995 458 c 0
 995 199 813 -27 488 -27 c 0
 218 -27 38 186 38 458 c 0
EndSplineSet
Colour: ffffff
EndChar

StartChar: p
Encoding: 112 112 154
Width: 908
VWidth: 1691
Flags: HMW
LayerCount: 2
Fore
SplineSet
37 0 m 1
 48 74 l 1
 185 121 l 1
 185 796 l 1
 44 826 l 1
 54 903 l 1
 170 922 327 947 480 947 c 0
 695 947 895 890 895 654 c 0
 895 431 675 311 451 319 c 1
 433 402 l 1
 486 403 l 2
 616 406 695 494 695 628 c 0
 695 756 624 864 439 864 c 0
 415 864 377 860 377 860 c 1
 377 122 l 1
 574 83 l 1
 560 0 l 1
 37 0 l 1
EndSplineSet
Colour: ffffff
EndChar

StartChar: paragraph
Encoding: 182 182 155
Width: 1289
VWidth: 0
Flags: HMW
LayerCount: 2
Back
SplineSet
307.25 1058.08 m 0
 307.25 1356.18 593.136 1561.69 904.456 1561.69 c 2
 1133.37 1561.69 l 1
 1133.37 1.01758 l 1
 728.449 1.01758 l 5
 735.57 52.9043 l 5
 1007.21 91.5645 l 1
 1007.21 1486.4 l 1
 955.326 1489.46 926.839 1489.46 915.647 1489.46 c 0
 596.189 1489.46 473.085 1349.05 473.085 1053 c 0
 473.085 838.326 635.867 662.319 905.475 662.319 c 1
 883.092 599.24 l 1
 556.511 599.24 307.25 691.823 307.25 1058.08 c 0
1203.57 1561.69 m 1
 1559.65 1561.69 l 1
 1553.55 1514.89 l 1
 1332.78 1485.38 l 1
 1332.78 80.373 l 1
 1572.88 57.9912 l 1
 1560.67 -2.03418 l 1
 1203.57 1.01758 l 1
 1203.57 1561.69 l 1
EndSplineSet
Fore
SplineSet
920 0 m 1
 920 930 l 1
 1211 930 l 1
 1201 853 l 1
 1061 815 l 1
 1061 114 l 1
 1212 80 l 1
 1202 0 l 1
 920 0 l 1
164 593 m 0
 164 816 366 930 601 930 c 2
 841 930 l 1
 841 0 l 1
 467 0 l 1
 474 74 l 1
 683 121 l 1
 683 838 l 1
 643 839 611 840 601 840 c 0
 493 840 365 801 365 629 c 0
 365 489 439 395 605 389 c 1
 587 291 l 1
 339 291 164 381 164 593 c 0
EndSplineSet
Colour: ffffff
EndChar

StartChar: parenleft
Encoding: 40 40 156
Width: 477
VWidth: 0
Flags: HMW
LayerCount: 2
Back
SplineSet
401 -317 m 1
 322 -375 l 1
 279 -327 40 -69 121 446 c 0
 204 971 511 1199 585 1255 c 1
 624 1189 l 1
 520 1077 369 880 301 456 c 0
 235 40 368 -244 401 -317 c 1
EndSplineSet
Fore
SplineSet
49 445 m 0
 49 970 320 1199 386 1255 c 1
 436 1189 l 1
 350 1076 227 879 227 455 c 0
 227 40 405 -244 449 -317 c 1
 381 -375 l 1
 331 -328 49 -70 49 445 c 0
EndSplineSet
Colour: ffffff
EndChar

StartChar: parenright
Encoding: 41 41 157
Width: 477
VWidth: 0
Flags: HMW
LayerCount: 2
Back
SplineSet
-25 -317 m 1
 35 -375 l 1
 94 -327 416 -69 497 446 c 0
 580 971 345 1199 287 1255 c 1
 228 1189 l 1
 296 1077 388 880 320 456 c 0
 254 40 31 -244 -25 -317 c 1
EndSplineSet
Fore
SplineSet
30 -317 m 1
 74 -244 253 40 253 455 c 0
 253 879 130 1076 44 1189 c 1
 93 1255 l 1
 159 1199 431 970 431 445 c 0
 431 -70 149 -328 99 -375 c 1
 30 -317 l 1
EndSplineSet
Colour: ffffff
EndChar

StartChar: percent
Encoding: 37 37 158
Width: 1046
VWidth: 0
Flags: HMW
LayerCount: 2
Fore
SplineSet
739 220 m 0
 739 127 768 39 835 39 c 0
 911 39 927 126 927 222 c 0
 927 318 903 411 834 411 c 0
 758 411 739 312 739 220 c 0
590 220 m 0
 590 363 723 470 834 470 c 0
 961 470 1071 369 1071 217 c 0
 1071 74 940 -30 835 -30 c 0
 721 -30 590 58 590 220 c 0
46 -9 m 1
 434 440 l 1
 749.651 846.546 l 1
 626.768 850.697 503.884 854.849 381 859 c 1
 426 818 449 723 449 683 c 0
 449 537 311 431 206 431 c 0
 92 431 -35 521 -35 683 c 0
 -35 826 99 934 210 934 c 0
 226 934 231 933 236 931 c 1
 245 862 l 1
 232 868 221 873 204 873 c 0
 133 873 114 775 114 683 c 0
 114 590 139 499 206 499 c 0
 282 499 300 587 300 683 c 0
 300 804 284 870 266 922 c 1
 816 932 l 1
 989 929 l 1
 988 904 l 1
 597 443 l 1
 241 -27 l 1
 46 -9 l 1
EndSplineSet
Colour: ffffff
EndChar

StartChar: period
Encoding: 46 46 159
Width: 383
VWidth: 0
Flags: HMW
LayerCount: 2
Back
SplineSet
235 215 m 3
 298 215 335 161 335 107 c 0
 335 23 274 -33 198 -33 c 19
 145 -33 92 23 92 74 c 0
 92 153 157 215 235 215 c 3
EndSplineSet
Fore
SplineSet
73 92 m 0
 73 156 127 205 191 205 c 0
 257 205 313 154 313 90 c 0
 313 23 257 -31 191 -31 c 0
 125 -31 73 25 73 92 c 0
EndSplineSet
Colour: ffffff
EndChar

StartChar: periodcentered
Encoding: 183 183 160
Width: 406
VWidth: 0
Flags: HMW
LayerCount: 2
Back
SplineSet
390 1237 m 0
 331 1237 294 1181 286 1125 c 0
 276 1064 298 996 362 996 c 0
 416 996 452 1037 464 1110 c 0
 474 1173 453 1237 390 1237 c 0
408 1285 m 0
 504 1285 553 1217 538 1123 c 0
 523 1032 444 948 342 948 c 0
 250 948 196 1011 213 1113 c 0
 228 1205 314 1285 408 1285 c 0
EndSplineSet
Fore
SplineSet
83 504 m 0
 83 568 139 618 203 618 c 0
 269 618 325 568 325 504 c 0
 325 437 269 381 203 381 c 0
 137 381 83 437 83 504 c 0
EndSplineSet
Colour: ffffff
EndChar

StartChar: plus
Encoding: 43 43 161
Width: 648
VWidth: 0
Flags: HMW
LayerCount: 2
Back
SplineSet
477 410 m 1
 443 173 l 1
 334 185 l 1
 368 410 l 1
 147 410 l 1
 175 510 l 1
 385 510 l 1
 421 742 l 1
 527 730 l 1
 494 510 l 1
 713 510 l 1
 685 410 l 1
 477 410 l 1
EndSplineSet
Fore
SplineSet
50 409 m 1
 62 510 l 1
 271 510 l 1
 271 741 l 1
 380 729 l 1
 381 510 l 1
 601 510 l 1
 589 409 l 1
 381 409 l 1
 383 174 l 1
 271 185 l 1
 271 409 l 1
 50 409 l 1
EndSplineSet
Colour: ffffff
EndChar

StartChar: plusminus
Encoding: 177 177 162
Width: 737
VWidth: 0
Flags: HMW
LayerCount: 2
Back
SplineSet
117 117 m 5
 730 124 l 5
 697 20 l 5
 84 13 l 5
 117 117 l 5
576.938 476 m 1
 505.4 239 l 1
 398.301 251 l 1
 467.938 476 l 1
 246.938 476 l 1
 290.775 576 l 1
 500.775 576 l 1
 573.521 808 l 1
 677.62 796 l 1
 609.775 576 l 1
 828.775 576 l 1
 784.938 476 l 1
 576.938 476 l 1
EndSplineSet
Fore
SplineSet
83 475 m 1
 95 575 l 1
 304 575 l 1
 304 807 l 1
 412 795 l 1
 414 575 l 1
 633 575 l 1
 621 475 l 1
 414 475 l 1
 415 240 l 1
 304 251 l 1
 304 475 l 1
 83 475 l 1
58 13 m 1
 74 117 l 1
 686 123 l 1
 670 19 l 1
 58 13 l 1
EndSplineSet
Colour: ffffff
EndChar

StartChar: q
Encoding: 113 113 163
Width: 1027
VWidth: 1691
Flags: HMW
LayerCount: 2
Fore
SplineSet
240 526 m 0
 240 294 346 70 564 67 c 1
 737 114 784 257 784 418 c 0
 784 629 668 853 489 853 c 0
 333 853 240 733 240 526 c 0
38 455 m 0
 38 741 237 947 536 947 c 0
 826 947 988 736 988 483 c 0
 988 257 857 51 633 -6 c 1
 678 -106 768 -210 965 -205 c 1
 965 -229 962 -263 956 -281 c 1
 905 -311 846 -327 787 -327 c 0
 623 -327 520 -198 532 -30 c 1
 213 -41 38 188 38 455 c 0
EndSplineSet
Colour: ffffff
EndChar

StartChar: question
Encoding: 63 63 164
Width: 642
VWidth: 0
Flags: HMW
LayerCount: 2
Fore
SplineSet
159 92 m 0
 159 159 216 210 282 210 c 0
 349 210 406 157 406 90 c 0
 406 20 352 -36 282 -36 c 0
 212 -36 159 22 159 92 c 0
47 1152 m 0
 47 1205 86 1287 243 1287 c 0
 398 1287 587 1114 587 860 c 0
 587 623 299 656 299 508 c 0
 299 468 306 432 321 383 c 1
 246 366 l 1
 219 406 169 505 169 585 c 0
 169 809 476 734 476 939 c 0
 476 1031 372 1113 313 1113 c 0
 237 1113 164 1087 121 1041 c 1
 88 1054 47 1098 47 1152 c 0
EndSplineSet
Colour: ffffff
EndChar

StartChar: questiondown
Encoding: 191 191 165
Width: 636
VWidth: 0
Flags: HMW
LayerCount: 2
Fore
SplineSet
233 810 m 0
 233 880 289 936 359 936 c 0
 429 936 482 877 482 807 c 0
 482 740 425 690 359 690 c 0
 292 690 233 743 233 810 c 0
53 40 m 0
 53 277 341 243 341 391 c 0
 341 431 334 468 319 517 c 1
 393 534 l 1
 420 494 470 394 470 314 c 0
 470 90 164 165 164 -40 c 0
 164 -132 269 -213 328 -213 c 0
 404 -213 476 -188 519 -142 c 1
 552 -155 593 -199 593 -253 c 0
 593 -306 553 -388 396 -388 c 0
 241 -388 53 -214 53 40 c 0
EndSplineSet
Colour: ffffff
EndChar

StartChar: quotedbl
Encoding: 34 34 166
Width: 497
VWidth: 0
Flags: HMW
LayerCount: 2
Back
SplineSet
497 1303 m 1
 677 1286 l 1
 581 903 l 1
 486 892 l 1
 497 1303 l 1
289 1303 m 1
 469 1286 l 1
 373 903 l 1
 277 892 l 1
 289 1303 l 1
EndSplineSet
Fore
SplineSet
258 1302 m 1
 442 1286 l 1
 406 903 l 1
 311 892 l 1
 258 1302 l 1
50 1302 m 1
 233 1286 l 1
 197 903 l 1
 104 892 l 1
 50 1302 l 1
EndSplineSet
Colour: ffffff
EndChar

StartChar: quotedblleft
Encoding: 8220 8220 167
Width: 736
VWidth: 0
Flags: HMW
LayerCount: 2
Fore
SplineSet
369 964 m 0
 369 1057 403 1217 666 1287 c 1
 688 1219 l 1
 557 1185 507 1109 507 1045 c 0
 507 989 553 938 623 938 c 0
 633 938 642 939 652 940 c 1
 660 919 666 901 666 878 c 0
 666 798 594 756 544 756 c 0
 474 756 369 813 369 964 c 0
54 964 m 0
 54 1057 88 1217 351 1287 c 1
 372 1219 l 1
 241 1185 191 1109 191 1045 c 0
 191 989 238 938 308 938 c 0
 318 938 328 939 338 940 c 1
 346 919 352 901 352 878 c 0
 352 798 280 756 230 756 c 0
 160 756 54 813 54 964 c 0
EndSplineSet
Colour: ffffff
EndChar

StartChar: quotedblright
Encoding: 8221 8221 168
Width: 741
VWidth: 0
Flags: HMW
LayerCount: 2
Fore
SplineSet
380 824 m 1
 511 858 561 934 561 998 c 0
 561 1054 515 1104 445 1104 c 0
 435 1104 425 1104 415 1103 c 1
 407 1124 400 1143 400 1166 c 0
 400 1246 473 1286 523 1286 c 0
 593 1286 698 1229 698 1078 c 0
 698 985 665 825 402 755 c 1
 380 824 l 1
62 824 m 1
 193 858 243 934 243 998 c 0
 243 1054 198 1104 128 1104 c 0
 118 1104 108 1104 98 1103 c 1
 90 1124 83 1143 83 1166 c 0
 83 1246 156 1286 206 1286 c 0
 276 1286 381 1229 381 1078 c 0
 381 985 348 825 85 755 c 1
 62 824 l 1
EndSplineSet
Colour: ffffff
EndChar

StartChar: quoteleft
Encoding: 8216 8216 169
Width: 419
VWidth: 0
Flags: HMW
LayerCount: 2
Fore
SplineSet
53 961 m 0
 53 1054 86 1214 349 1284 c 1
 372 1215 l 1
 241 1181 190 1105 190 1041 c 0
 190 985 236 934 306 934 c 0
 316 934 325 936 335 937 c 1
 343 916 351 898 351 875 c 0
 351 795 278 753 228 753 c 0
 158 753 53 810 53 961 c 0
EndSplineSet
Colour: ffffff
EndChar

StartChar: quoteright
Encoding: 8217 8217 170
Width: 425
VWidth: 0
Flags: HMW
LayerCount: 2
Fore
SplineSet
62 819 m 1
 193 853 243 928 243 992 c 0
 243 1048 198 1100 128 1100 c 0
 118 1100 108 1098 98 1097 c 1
 90 1118 83 1137 83 1160 c 0
 83 1240 156 1281 206 1281 c 0
 276 1281 381 1224 381 1073 c 0
 381 980 348 820 85 750 c 1
 62 819 l 1
EndSplineSet
Colour: ffffff
EndChar

StartChar: quotesinglbase
Encoding: 8218 8218 171
Width: 434
VWidth: 0
Flags: HMW
LayerCount: 2
Fore
SplineSet
54 -244 m 1
 185 -210 236 -134 236 -70 c 0
 236 -14 190 36 120 36 c 0
 110 36 100 35 90 34 c 1
 82 55 76 74 76 97 c 0
 76 177 148 218 198 218 c 0
 268 218 372 161 372 10 c 0
 372 -83 340 -243 77 -313 c 1
 54 -244 l 1
EndSplineSet
Colour: ffffff
EndChar

StartChar: quotesingle
Encoding: 39 39 172
Width: 289
VWidth: 0
Flags: HMW
LayerCount: 2
Back
SplineSet
306 1303 m 1
 486 1286 l 1
 390 903 l 1
 294 892 l 1
 306 1303 l 1
EndSplineSet
Fore
SplineSet
50 1302 m 1
 233 1286 l 1
 197 903 l 1
 104 892 l 1
 50 1302 l 1
EndSplineSet
Colour: ffffff
EndChar

StartChar: r
Encoding: 114 114 173
Width: 1045
VWidth: 1691
Flags: HMW
LayerCount: 2
Fore
SplineSet
374 459 m 1
 573 459 l 1
 637 478 692 546 692 652 c 0
 692 775 607 863 457 863 c 0
 409 863 374 858 374 858 c 1
 374 459 l 1
37 0 m 1
 48 74 l 1
 195 121 l 1
 195 794 l 1
 44 824 l 1
 54 901 l 1
 191 924 342 947 480 947 c 0
 740 947 881 853 881 688 c 0
 881 568 785 472 686 431 c 1
 686 430 l 1
 780 299 l 2
 848 204 936 116 1025 90 c 2
 1058 80 l 1
 1043 10 l 1
 996 -5 953 -10 913 -10 c 0
 766 -10 647 103 583 274 c 2
 548 368 l 1
 374 368 l 1
 374 126 l 1
 551 83 l 1
 541 0 l 1
 37 0 l 1
EndSplineSet
Colour: ffffff
EndChar

StartChar: registered
Encoding: 174 174 174
Width: 1257
VWidth: 0
Flags: HMW
LayerCount: 2
Fore
SplineSet
587 1068 m 1
 666 1068 l 1
 706 1085 737 1117 737 1170 c 0
 737 1233 694 1272 621 1272 c 0
 603 1272 590 1270 587 1270 c 1
 587 1068 l 1
373 777 m 1
 380 825 l 1
 460 853 l 1
 460 1248 l 1
 379 1266 l 1
 384 1319 l 1
 450 1329 562 1341 629 1341 c 0
 782 1341 874 1305 874 1194 c 0
 874 1124 816 1051 749 1028 c 1
 748 1026 l 1
 826 935 l 2
 876 877 895 862 945 839 c 1
 962 832 l 1
 951 777 l 1
 932 771 901 766 869 766 c 0
 778 766 737 823 687 918 c 2
 643 1001 l 1
 587 1001 l 1
 587 857 l 1
 661 830 l 1
 656 777 l 1
 373 777 l 1
261 1036 m 0
 261 776 432 616 650 616 c 0
 878 616 1059 784 1059 1016 c 0
 1059 1280 878 1446 652 1446 c 0
 430 1446 261 1300 261 1036 c 0
173 1022 m 0
 173 1344 384 1522 652 1522 c 0
 928 1522 1147 1352 1147 1026 c 0
 1147 716 924 540 642 540 c 0
 380 540 173 724 173 1022 c 0
EndSplineSet
Colour: ffffff
EndChar

StartChar: ring
Encoding: 730 730 175
Width: 491
VWidth: 0
Flags: HMW
LayerCount: 2
Fore
SplineSet
160 1538 m 0
 160 1477 191 1410 255 1410 c 0
 309 1410 341 1451 341 1524 c 0
 341 1586 307 1650 245 1650 c 0
 186 1650 160 1594 160 1538 c 0
89 1527 m 0
 89 1619 163 1699 256 1699 c 0
 352 1699 412 1629 412 1536 c 0
 412 1446 345 1361 243 1361 c 0
 151 1361 89 1425 89 1527 c 0
EndSplineSet
Colour: ffffff
EndChar

StartChar: s
Encoding: 115 115 176
Width: 714
VWidth: 1691
Flags: HMW
LayerCount: 2
Fore
SplineSet
37 59 m 1
 70 309 l 1
 172 295 l 1
 191 144 l 1
 232 101 265 75 367 75 c 0
 428 75 504 106 504 179 c 0
 504 371 61 365 61 665 c 0
 61 846 223 947 390 947 c 0
 476 947 551 930 614 897 c 1
 614 890 592 635 592 635 c 1
 493 647 l 1
 478 796 l 1
 459 830 414 863 357 863 c 0
 270 863 219 823 219 734 c 0
 219 524 678 518 678 254 c 0
 678 85 520 -24 353 -24 c 0
 187 -24 91 7 37 59 c 1
EndSplineSet
Colour: ffffff
EndChar

StartChar: section
Encoding: 167 167 177
Width: 889
VWidth: 0
Flags: HMW
LayerCount: 2
Fore
SplineSet
83 916 m 0
 83 1143 273 1269 470 1269 c 0
 578 1269 674 1235 753 1169 c 1
 753 1161 731 887 731 887 c 1
 632 899 l 1
 606 1090 l 1
 588 1126 518 1185 438 1185 c 0
 338 1185 254 1126 254 995 c 0
 254 698 902 728 835 300 c 1
 429 527 l 2
 270 616 83 704 83 916 c 0
55 -236 m 1
 68 31 l 1
 172 16 l 1
 209 -172 l 1
 245 -229 322 -282 415 -282 c 0
 520 -282 653 -219 653 -71 c 0
 653 195 17 191 83 606 c 1
 439 406 l 2
 611 310 836 230 836 -4 c 0
 836 -234 621 -383 393 -383 c 0
 249 -383 119 -315 55 -236 c 1
EndSplineSet
Colour: ffffff
EndChar

StartChar: semicolon
Encoding: 59 59 178
Width: 462
VWidth: 0
Flags: HMW
LayerCount: 2
Back
SplineSet
342 852 m 0
 403 852 446 806 436 745 c 0
 426 681 367 629 306 629 c 0
 243 629 203 682 213 746 c 0
 223 807 281 852 342 852 c 0
243 225 m 0
 304 225 347 176 337 117 c 0
 327 53 267 2 206 2 c 0
 143 2 102 55 112 119 c 0
 122 178 182 225 243 225 c 0
EndSplineSet
Fore
SplineSet
126 744 m 0
 126 806 178 853 240 853 c 0
 304 853 356 805 356 743 c 0
 356 678 304 626 240 626 c 0
 176 626 126 679 126 744 c 0
77 -230 m 1
 199 -198 246 -131 246 -70 c 0
 246 -18 204 31 138 31 c 0
 129 31 119 29 110 28 c 1
 102 47 96 66 96 87 c 0
 96 161 163 199 210 199 c 0
 274 199 372 145 372 6 c 0
 372 -81 342 -231 98 -295 c 1
 77 -230 l 1
EndSplineSet
Colour: ffffff
EndChar

StartChar: seven
Encoding: 55 55 179
Width: 706
VWidth: 0
Flags: HMW
LayerCount: 2
Back
SplineSet
390 1006 m 1
 320 872 l 1
 254 885 l 1
 315 1154 l 1
 1070 1154 l 1
 1065 1103 l 1
 486 -33 l 1
 398 -3 l 1
 892 1006 l 1
 390 1006 l 1
EndSplineSet
Fore
SplineSet
15 617 m 1
 55 945 l 1
 693 945 l 1
 706 850 l 1
 484 448 305 139 252 -295 c 1
 241 -296 216 -304 206 -304 c 0
 121 -304 84 -253 84 -189 c 0
 84 -26 424 550 565 786 c 1
 147 786 l 1
 83 604 l 1
 15 617 l 1
EndSplineSet
Colour: ffffff
EndChar

StartChar: six
Encoding: 54 54 180
Width: 796
VWidth: 0
Flags: HMW
LayerCount: 2
Back
SplineSet
398 595 m 1
 411 608 428 619 446 631 c 0
 464 643 486 654 509 662 c 0
 532 670 555 679 580 684 c 0
 605 689 631 692 657 692 c 0
 700 692 740 684 773 667 c 0
 806 650 836 626 859 598 c 0
 882 570 900 538 912 502 c 0
 924 466 930 426 930 386 c 0
 930 332 917 280 892 230 c 0
 867 180 834 135 793 99 c 0
 752 63 704 33 651 12 c 0
 598 -9 542 -21 484 -21 c 256
 426 -21 377 -13 337 7 c 0
 297 27 264 53 238 84 c 0
 212 115 194 154 182 197 c 0
 170 240 165 286 165 334 c 0
 165 395 175 454 193 515 c 0
 211 576 238 634 271 692 c 0
 304 750 345 804 390 855 c 0
 435 906 482 954 535 997 c 0
 588 1040 642 1079 700 1110 c 0
 758 1141 816 1168 874 1186 c 1
 902 1130 l 1
 834 1100 773 1065 717 1024 c 0
 661 983 611 940 568 892 c 0
 525 844 489 794 459 743 c 0
 429 692 405 643 388 595 c 1
 398 595 l 1
504 59 m 0
 555 59 597 70 628 88 c 0
 659 106 686 130 704 160 c 0
 722 190 733 222 740 258 c 0
 747 294 748 329 748 362 c 0
 748 390 744 418 737 446 c 0
 730 474 720 498 705 519 c 0
 690 540 672 558 651 571 c 0
 630 584 603 591 573 591 c 0
 555 591 535 590 515 585 c 0
 495 580 475 574 457 566 c 0
 439 558 421 550 406 542 c 0
 391 534 382 523 375 515 c 1
 370 494 364 465 357 434 c 0
 350 403 347 370 347 335 c 0
 347 300 350 266 357 233 c 0
 364 200 373 171 386 145 c 0
 399 119 416 98 436 83 c 0
 456 68 479 59 504 59 c 0
EndSplineSet
Fore
SplineSet
232 406 m 0
 232 235 285 61 402 61 c 0
 507 61 572 174 572 328 c 0
 572 463 538 615 396 615 c 0
 322 615 263 570 239 534 c 1
 236 501 232 440 232 406 c 0
37 421 m 0
 37 756 314 1127 628 1229 c 1
 663 1171 l 1
 402 1052 282 816 242 618 c 1
 252 618 l 1
 310 686 393 722 475 722 c 0
 653 722 759 577 759 390 c 0
 759 170 586 -21 385 -21 c 0
 129 -21 37 187 37 421 c 0
EndSplineSet
Colour: ffffff
EndChar

StartChar: slash
Encoding: 47 47 181
Width: 676
VWidth: 0
Flags: HMW
LayerCount: 2
Fore
SplineSet
44 -363 m 1
 506 1235 l 1
 638 1244 l 1
 172 -355 l 1
 44 -363 l 1
EndSplineSet
Colour: ffffff
EndChar

StartChar: softhyphen
Encoding: 173 173 182
Width: 580
VWidth: 0
Flags: HMW
LayerCount: 2
Back
SplineSet
170 522 m 1
 588 581 l 1
 562 466 l 1
 144 406 l 1
 170 522 l 1
EndSplineSet
Fore
SplineSet
85 406 m 1
 92 521 l 1
 500 581 l 1
 492 465 l 1
 85 406 l 1
EndSplineSet
Colour: ffffff
EndChar

StartChar: sterling
Encoding: 163 163 184
Width: 1283
VWidth: 0
Flags: HMW
LayerCount: 2
Back
SplineSet
1093 1211 m 1x70
 1012 895 l 1
 928 908 l 1
 922 1121 l 1
 902 1133 877 1144 841 1144 c 0
 674 1144 622 1038 563 704 c 1
 557 656 l 1
 778 669 l 1
 750 568 l 1
 538 555 l 1
 530 515 l 1
 502 356 468 196 405 99 c 1xb0
 864 96 l 1
 1034 348 l 1
 1118 330 l 1
 1027 0 l 1
 38 0 l 1
 58 74 l 1
 233 121 l 1
 281 222 299 312 325 461 c 2
 342 548 l 1
 162 538 l 1
 188 639 l 1
 360 649 l 1
 385 786 l 1
 446 1108 641 1250 867 1250 c 0
 948 1250 1019 1244 1093 1211 c 1x70
EndSplineSet
Fore
SplineSet
110 0 m 1
 116 74 l 1
 284 113 l 1
 314 174 324 253 324 334 c 2
 324 406 l 1
 146 396 l 1
 158 488 l 1
 328 498 l 1
 330 611 l 1
 336 834 467 949 682 948 c 0
 871 947 963 880 963 771 c 0
 963 693 880 652 814 647 c 1
 792 796 752 863 664 863 c 0
 529 863 514 791 514 560 c 2
 514 506 l 1
 751 520 l 1
 741 429 l 1
 512 412 l 1
 512 388 l 2
 512 258 493 153 448 98 c 1
 821 98 l 1
 928 334 l 1
 1010 313 l 1
 985 0 l 1
 110 0 l 1
EndSplineSet
Colour: ffffff
EndChar

StartChar: t
Encoding: 116 116 185
Width: 936
VWidth: 1691
Flags: HMW
LayerCount: 2
Fore
SplineSet
41 930 m 1
 897 930 l 1
 867 641 l 1
 772 656 l 1
 733 838 l 1
 563 838 l 1
 563 114 l 1
 728 80 l 1
 714 0 l 1
 225 0 l 1
 232 74 l 1
 371 121 l 1
 371 838 l 1
 185 838 l 1
 138 645 l 1
 47 658 l 1
 41 930 l 1
EndSplineSet
Colour: ffffff
EndChar

StartChar: thorn
Encoding: 254 254 186
Width: 977
VWidth: 1691
Flags: HMW
LayerCount: 2
Fore
SplineSet
80 854 m 1
 91 930 l 1
 174 930 426 930 582 930 c 1
 572 854 l 1
 426 816 l 1
 426 765.941 l 1
 458.219 767.882 490.749 769 523 769 c 0
 728 769 918 716 918 496 c 0
 918 286 698 173 474 181 c 1
 456 264 l 1
 509 265 l 2
 638 268 717 348 717 470 c 0
 717 587 652 686 482 686 c 0
 463.84 686 437.663 683.71 426 682.595 c 1
 426 114 l 1
 577 80 l 1
 567 0 l 1
 87 0 l 1
 95 74 l 1
 232 121 l 1
 232 812 l 1
 80 854 l 1
EndSplineSet
Colour: ffffff
EndChar

StartChar: three
Encoding: 51 51 187
Width: 692
VWidth: 0
Flags: HMW
LayerCount: 2
Back
SplineSet
258 208 m 1xf8
 258 198 263 185 271 168 c 0
 279 151 289 134 304 117 c 0
 319 100 337 86 357 74 c 0
 377 62 398 56 421 56 c 0
 482 56 529 66 565 86 c 0
 601 106 629 131 647 159 c 0
 665 187 675 215 680 243 c 0
 685 271 689 293 689 310 c 0xf8
 689 336 682 363 670 391 c 0
 658 419 644 445 621 466 c 0
 598 487 570 506 537 519 c 0
 504 532 465 540 424 540 c 2
 408 540 l 1
 408 604 l 1
 415 606 428 611 446 618 c 0
 464 625 486 635 509 647 c 0
 532 659 558 673 583 690 c 0
 608 707 633 727 654 750 c 0
 675 773 694 796 707 822 c 0
 720 848 727 880 727 913 c 0
 727 931 725 947 720 964 c 0
 715 981 706 998 694 1011 c 0
 682 1024 667 1036 649 1044 c 0
 631 1052 608 1055 580 1055 c 0
 527 1055 484 1040 451 1014 c 0
 418 988 388 952 363 907 c 1
 294 931 l 1
 302 957 317 984 340 1014 c 0
 363 1044 390 1072 423 1097 c 0
 456 1122 492 1142 532 1159 c 0
 572 1176 614 1184 657 1184 c 0
 692 1184 724 1180 755 1168 c 0
 786 1156 813 1143 836 1123 c 0
 859 1103 875 1080 888 1054 c 0
 901 1028 908 995 908 964 c 0xf4
 908 921 902 884 885 849 c 0
 868 814 847 784 822 758 c 0
 797 732 768 710 735 690 c 0
 702 670 669 654 634 642 c 1
 633 631 l 1
 673 626 707 615 737 598 c 0
 767 581 791 561 811 538 c 0
 831 515 845 490 855 462 c 0
 865 434 870 405 870 377 c 0
 870 323 857 270 829 220 c 0
 801 170 764 125 718 89 c 0
 672 53 618 24 555 3 c 0
 492 -18 427 -30 358 -30 c 0
 317 -30 283 -26 253 -18 c 0
 223 -10 198 0 178 12 c 0
 158 24 144 38 134 53 c 0
 124 68 119 84 119 99 c 0
 119 124 130 147 155 168 c 0
 180 189 215 203 258 208 c 1xf8
EndSplineSet
Fore
SplineSet
-44 -159 m 0
 -44 -110 9 -46 92 -38 c 1
 98 -81 139 -210 235 -210 c 0
 420 -210 466 -86 466 30 c 0
 466 156 366 298 179 303 c 1
 169 370 l 1
 298 411 436 506 436 687 c 0
 436 774 400 857 310 857 c 0
 202 857 149 788 112 698 c 1
 34 725 l 1
 53 830 190 991 368 991 c 0
 519 991 623 884 623 739 c 0
 623 582 469 450 381 412 c 1
 381 401 l 1
 531 384 654 241 654 83 c 0
 654 -107 461 -297 215 -297 c 0
 41 -297 -44 -225 -44 -159 c 0
EndSplineSet
Colour: ffffff
EndChar

StartChar: threequarters
Encoding: 190 190 188
Width: 1736
VWidth: 0
Flags: HMW
LayerCount: 2
Fore
SplineSet
800 272 m 1
 990 272 l 1
 990 508 l 1
 800 272 l 1
693 270 m 1
 1103 737 l 1
 1160 726 l 1
 1155 655 1151 539 1151 430 c 2
 1151 272 l 1
 1299 272 l 1
 1290 175 l 1
 1151 175 l 1
 1151 83 l 1
 1272 65 l 1
 1266 0 l 1
 852 0 l 1
 856 58 l 1
 993 85 l 1
 993 178 l 1
 706 178 l 1
 693 270 l 1
173 -10 m 1
 580 588 l 1
 971 1210 l 1
 1147 1207 l 1
 1145 1178 l 1
 744 591 l 1
 373 -32 l 1
 173 -10 l 1
-31 546 m 1
 -1 745 l 1
 74 737 l 1
 82 602 l 1
 100 581 138 562 181 562 c 0
 276 562 332 618 332 702 c 0
 332 773 249 832 128 832 c 1
 112 891 l 1
 160 906 296 954 296 1053 c 0
 296 1110 261 1172 189 1172 c 0
 158 1172 127 1169 106 1150 c 1
 82 993 l 1
 6 999 l 1
 -6 1170 l 1
 25 1214 140 1262 243 1262 c 0
 378 1262 483 1206 483 1100 c 0
 483 996 401 938 304 910 c 1
 304 903 l 1
 449 888 522 822 522 719 c 0
 522 583 365 478 177 478 c 0
 82 478 -11 504 -31 546 c 1
EndSplineSet
Colour: ffffff
EndChar

StartChar: three.superior
Encoding: 179 179 189
Width: 635
VWidth: 0
Flags: HMW
LayerCount: 2
Fore
SplineSet
21 563 m 1
 51 762 l 1
 126 754 l 1
 134 619 l 1
 152 598 190 579 233 579 c 0
 328 579 384 635 384 719 c 0
 384 790 301 849 180 849 c 1
 164 908 l 1
 212 923 348 971 348 1070 c 0
 348 1127 313 1189 241 1189 c 0
 210 1189 179 1186 158 1167 c 1
 134 1010 l 1
 58 1016 l 1
 46 1187 l 1
 77 1231 192 1279 295 1279 c 0
 430 1279 535 1223 535 1117 c 0
 535 1013 453 955 356 927 c 1
 356 920 l 1
 501 905 574 839 574 736 c 0
 574 600 417 495 229 495 c 0
 134 495 41 521 21 563 c 1
EndSplineSet
Colour: ffffff
EndChar

StartChar: tilde
Encoding: 732 732 190
Width: 649
VWidth: 0
Flags: HMW
LayerCount: 2
Fore
SplineSet
92 1379 m 1
 92 1379 132 1533 228 1521 c 2
 454 1492 l 2
 479 1489 510 1532 510 1532 c 1
 559 1530 l 1
 559 1530 512 1374 415 1387 c 2
 190 1419 l 2
 162 1423 131 1370 131 1370 c 1
 92 1379 l 1
EndSplineSet
Colour: ffffff
EndChar

StartChar: two
Encoding: 50 50 191
Width: 791
VWidth: 0
Flags: HMW
LayerCount: 2
Back
SplineSet
94 2 m 1
 102 102 l 1
 363 302 l 2
 434 356 435 357 509 418 c 0
 559 459 604 502 644 548 c 0
 684 594 717 643 742 694 c 0
 767 745 779 799 779 857 c 0
 779 883 777 908 770 931 c 0
 763 954 755 975 742 993 c 0
 729 1011 710 1024 689 1034 c 0
 668 1044 639 1049 606 1049 c 0
 571 1049 542 1041 512 1026 c 0
 482 1011 456 991 433 966 c 0
 410 941 387 915 367 885 c 0
 347 855 330 827 315 799 c 1
 239 829 l 1
 254 870 277 912 307 953 c 0
 337 994 370 1032 410 1067 c 0
 450 1102 492 1128 538 1149 c 0
 584 1170 633 1181 684 1181 c 0
 778 1181 846 1158 892 1110 c 0
 938 1062 961 995 961 907 c 0
 961 826 939 753 898 685 c 0
 857 617 805 557 746 499 c 0
 687 441 621 388 555 340 c 0
 489 292 431 249 381 208 c 2
 296 135 l 1
 750 135 l 1
 867 306 l 1
 935 296 l 1
 839 0 l 1
 94 2 l 1
EndSplineSet
Fore
SplineSet
40 102 m 1
 295 300 l 1
 463 432 497 561 497 658 c 0
 497 796 436 867 343 867 c 0
 257 867 166 782 133 675 c 1
 58 704 l 1
 74 800 209 987 417 991 c 0
 606 994 702 860 702 703 c 0
 702 509 522 348 328 206 c 1
 244 147 l 1
 615 147 l 1
 693 301 l 1
 764 292 l 1
 710 0 l 1
 47 0 l 1
 40 102 l 1
EndSplineSet
Colour: ffffff
EndChar

StartChar: two.superior
Encoding: 178 178 192
Width: 622
VWidth: 0
Flags: HMW
LayerCount: 2
Fore
SplineSet
27 531 m 1
 35 638 l 1
 190 761 l 1
 294 846 373 930 373 1005 c 0
 373 1077 358 1153 264 1153 c 0
 215 1153 175 1127 160 1095 c 1
 138 966 l 1
 70 971 l 1
 55 1141 l 1
 96 1218 227 1257 328 1257 c 0
 481 1257 569 1189 569 1071 c 0
 569 918 421 803 258 696 c 2
 191 652 l 1
 461 652 l 1
 540 805 l 1
 597 784 l 1
 578 531 l 1
 27 531 l 1
EndSplineSet
Colour: ffffff
EndChar

StartChar: u
Encoding: 117 117 193
Width: 1152
VWidth: 1691
Flags: HMW
LayerCount: 2
Fore
SplineSet
46 854 m 1
 59 930 l 1
 541 930 l 1
 532 854 l 1
 393 816 l 1
 393 360 l 2
 393 170 483 105 612 105 c 0
 752 105 837 154 838 332 c 2
 841 812 l 1
 688 854 l 1
 698 930 l 1
 1116 930 l 1
 1105 854 l 1
 969 816 l 1
 964 365 l 2
 961 78 812 -27 562 -27 c 0
 392 -27 200 30 200 319 c 2
 200 812 l 1
 46 854 l 1
EndSplineSet
Colour: ffffff
EndChar

StartChar: uacute
Encoding: 250 250 194
Width: 1152
VWidth: 0
Flags: HMW
LayerCount: 2
Fore
SplineSet
540.5 1054.1 m 1
 663.5 1379.1 l 1
 774.5 1340.1 l 1
 591.5 1022.1 l 1
 540.5 1054.1 l 1
46 854 m 1
 59 930 l 1
 541 930 l 1
 532 854 l 1
 393 816 l 1
 393 360 l 2
 393 170 483 105 612 105 c 0
 752 105 837 154 838 332 c 2
 841 812 l 1
 688 854 l 1
 698 930 l 1
 1116 930 l 1
 1105 854 l 1
 969 816 l 1
 964 365 l 2
 961 78 812 -27 562 -27 c 0
 392 -27 200 30 200 319 c 2
 200 812 l 1
 46 854 l 1
EndSplineSet
Colour: ffffff
EndChar

StartChar: ucircumflex
Encoding: 251 251 195
Width: 1152
VWidth: 0
Flags: HMW
LayerCount: 2
Fore
SplineSet
391 1055 m 1
 559 1234 l 1
 614 1249 l 1
 792 1063 l 1
 743 1026 l 1
 580 1136 l 1
 569 1136 l 1
 430 1025 l 1
 391 1055 l 1
46 854 m 1
 59 930 l 1
 541 930 l 1
 532 854 l 1
 393 816 l 1
 393 360 l 2
 393 170 483 105 612 105 c 0
 752 105 837 154 838 332 c 2
 841 812 l 1
 688 854 l 1
 698 930 l 1
 1116 930 l 1
 1105 854 l 1
 969 816 l 1
 964 365 l 2
 961 78 812 -27 562 -27 c 0
 392 -27 200 30 200 319 c 2
 200 812 l 1
 46 854 l 1
EndSplineSet
Colour: ffffff
EndChar

StartChar: udieresis
Encoding: 252 252 196
Width: 1152
VWidth: 0
Flags: HMW
LayerCount: 2
Fore
SplineSet
650 1141 m 0
 650 1188 695 1218 735 1218 c 0
 779 1218 822 1187 822 1141 c 0
 822 1092 779 1059 735 1059 c 0
 692 1059 650 1092 650 1141 c 0
382 1141 m 0
 382 1188 427 1218 467 1218 c 0
 511 1218 553 1187 553 1141 c 0
 553 1092 511 1059 467 1059 c 0
 424 1059 382 1092 382 1141 c 0
46 854 m 1
 59 930 l 1
 541 930 l 1
 532 854 l 1
 393 816 l 1
 393 360 l 2
 393 170 483 105 612 105 c 0
 752 105 837 154 838 332 c 2
 841 812 l 1
 688 854 l 1
 698 930 l 1
 1116 930 l 1
 1105 854 l 1
 969 816 l 1
 964 365 l 2
 961 78 812 -27 562 -27 c 0
 392 -27 200 30 200 319 c 2
 200 812 l 1
 46 854 l 1
EndSplineSet
Colour: ffffff
EndChar

StartChar: ugrave
Encoding: 249 249 197
Width: 1152
VWidth: 0
Flags: HM
LayerCount: 2
Fore
SplineSet
391.5 1342.2 m 1
 506.5 1380.2 l 1
 638.5 1047.2 l 1
 582.5 1012.2 l 1
 391.5 1342.2 l 1
46 854 m 1
 59 930 l 1
 541 930 l 1
 532 854 l 1
 393 816 l 1
 393 360 l 2
 393 170 483 105 612 105 c 0
 752 105 837 154 838 332 c 2
 841 812 l 1
 688 854 l 1
 698 930 l 1
 1116 930 l 1
 1105 854 l 1
 969 816 l 1
 964 365 l 2
 961 78 812 -27 562 -27 c 0
 392 -27 200 30 200 319 c 2
 200 812 l 1
 46 854 l 1
EndSplineSet
Colour: ffffff
EndChar

StartChar: underscore
Encoding: 95 95 198
Width: 838
VWidth: 0
Flags: HMW
LayerCount: 2
Fore
SplineSet
-1 -132 m 1
 11 -27 l 1
 839 -27 l 1
 828 -132 l 1
 -1 -132 l 1
EndSplineSet
Colour: ffffff
EndChar

StartChar: v
Encoding: 118 118 199
Width: 1082
VWidth: 1691
Flags: HMW
LayerCount: 2
Fore
SplineSet
37 854 m 1
 47 930 l 1
 520 930 l 1
 510 854 l 1
 381 816 l 1
 580 241 l 1
 791 812 l 1
 659 854 l 1
 666 930 l 1
 1043 930 l 1
 1036 854 l 1
 932 816 l 1
 616 4 l 1
 464 -24 l 1
 160 812 l 1
 37 854 l 1
EndSplineSet
Colour: ffffff
EndChar

StartChar: w
Encoding: 119 119 200
Width: 1523
VWidth: 1691
Flags: HMW
LayerCount: 2
Fore
SplineSet
37 854 m 1
 46 930 l 1
 530 930 l 1
 515 854 l 1
 368 816 l 1
 522 261 l 1
 703 880 l 1
 879 905 l 1
 1050 266 l 1
 1207 812 l 1
 1056 854 l 1
 1067 930 l 1
 1486 930 l 1
 1475 854 l 1
 1352 816 l 1
 1086 4 l 1
 932 -24 l 1
 752 637 l 1
 567 4 l 1
 404 -24 l 1
 167 812 l 1
 37 854 l 1
EndSplineSet
Colour: ffffff
EndChar

StartChar: x
Encoding: 120 120 201
Width: 997
VWidth: 1691
Flags: HMW
LayerCount: 2
Fore
SplineSet
37 0 m 1
 49 76 l 1
 166 121 l 1
 412 449 l 1
 173 809 l 1
 46 852 l 1
 58 930 l 1
 511 930 l 1
 501 852 l 1
 387 817 l 1
 541 584 l 1
 702 812 l 1
 582 852 l 1
 595 930 l 1
 970 930 l 1
 962 854 l 1
 845 816 l 1
 617 491 l 1
 858 114 l 1
 983 80 l 1
 970 0 l 1
 537 0 l 1
 550 74 l 1
 650 111 l 1
 488 363 l 1
 316 117 l 1
 442 83 l 1
 427 0 l 1
 37 0 l 1
EndSplineSet
Colour: ffffff
EndChar

StartChar: y
Encoding: 121 121 202
Width: 939
VWidth: 1691
Flags: HMW
LayerCount: 2
Fore
SplineSet
12 854 m 1
 25 930 l 1
 483 930 l 1
 471 854 l 1
 353 816 l 1
 529 493 l 1
 697 812 l 1
 574 854 l 1
 584 930 l 1
 939 930 l 1
 929 854 l 1
 834 816 l 1
 586 385 l 1
 586 114 l 1
 737 80 l 1
 727 0 l 1
 243 0 l 1
 253 74 l 1
 393 121 l 1
 393 360 l 1
 140 812 l 1
 12 854 l 1
EndSplineSet
Colour: ffffff
EndChar

StartChar: yacute
Encoding: 253 253 203
Width: 939
VWidth: 0
Flags: HMW
LayerCount: 2
Fore
SplineSet
478 1053.1 m 1
 601 1378.1 l 1
 712 1339.1 l 1
 529 1021.1 l 1
 478 1053.1 l 1
12 854 m 1
 25 930 l 1
 483 930 l 1
 471 854 l 1
 353 816 l 1
 529 493 l 1
 697 812 l 1
 574 854 l 1
 584 930 l 1
 939 930 l 1
 929 854 l 1
 834 816 l 1
 586 385 l 1
 586 114 l 1
 737 80 l 1
 727 0 l 1
 243 0 l 1
 253 74 l 1
 393 121 l 1
 393 360 l 1
 140 812 l 1
 12 854 l 1
EndSplineSet
Colour: ffffff
EndChar

StartChar: ydieresis
Encoding: 255 255 204
Width: 2048
VWidth: 0
Flags: HM
LayerCount: 2
Fore
SplineSet
549 1137 m 0
 549 1184 594 1214 634 1214 c 0
 678 1214 721 1183 721 1137 c 0
 721 1088 678 1055 634 1055 c 0
 591 1055 549 1088 549 1137 c 0
281 1137 m 0
 281 1184 326 1214 366 1214 c 0
 410 1214 452 1183 452 1137 c 0
 452 1088 410 1055 366 1055 c 0
 323 1055 281 1088 281 1137 c 0
6 854 m 1
 19 930 l 1
 477 930 l 1
 465 854 l 1
 347 816 l 1
 523 493 l 1
 691 812 l 1
 568 854 l 1
 578 930 l 1
 933 930 l 1
 923 854 l 1
 828 816 l 1
 580 385 l 1
 580 114 l 1
 731 80 l 1
 721 0 l 1
 237 0 l 1
 247 74 l 1
 387 121 l 1
 387 360 l 1
 134 812 l 1
 6 854 l 1
EndSplineSet
Colour: ffffff
EndChar

StartChar: yen
Encoding: 165 165 205
Width: 1170
VWidth: 0
Flags: HMW
LayerCount: 2
Back
SplineSet
596 472 m 1
 289 472 l 1
 317 578 l 1
 581 578 l 1
 428 1126 l 1
 297 1168 l 1
 322 1244 l 1
 789 1244 l 1
 766 1168 l 1
 628 1130 l 1
 760 641 l 1
 1055 1126 l 1
 905 1168 l 1
 926 1244 l 1
 1323 1244 l 1
 1301 1168 l 1
 1171 1130 l 1
 829 578 l 1
 1133 578 l 1
 1105 472 l 1
 789 472 l 1
 770 345 l 1
 1093 345 l 1
 1065 239 l 1
 753 239 l 1
 733 114 l 1
 892 81 l 1
 869 0 l 1
 362 0 l 1
 383 74 l 1
 542 121 l 1
 560 239 l 1
 249 239 l 1
 277 345 l 1
 576 345 l 1
 596 472 l 1
EndSplineSet
Fore
SplineSet
219 498 m 1
 232 596 l 1
 399.433 596 l 1
 293 813 l 1
 157 854 l 1
 170 930 l 1
 610 930 l 1
 599 854 l 1
 486 816 l 1
 652 420 l 1
 836 813 l 1
 699 854 l 1
 709 930 l 1
 1085 930 l 1
 1075 854 l 1
 952 816 l 1
 841.74 596 l 1
 1041 596 l 1
 1030 498 l 1
 792.624 498 l 1
 740 393 l 1
 1041 393 l 1
 1030 295 l 1
 713 295 l 1
 713 113 l 1
 877 78 l 1
 867 0 l 1
 367 0 l 1
 377 71 l 1
 526 119 l 1
 526 295 l 1
 219 295 l 1
 232 393 l 1
 499 393 l 1
 447.5 498 l 1
 219 498 l 1
EndSplineSet
Colour: ffffff
EndChar

StartChar: z
Encoding: 122 122 206
Width: 899
VWidth: 1691
Flags: HMW
LayerCount: 2
Fore
SplineSet
37 104 m 1
 601 835 l 1
 244 835 l 1
 178 639 l 1
 78 657 l 1
 87 930 l 1
 841 930 l 1
 841 854 l 1
 258 100 l 1
 669 100 l 1
 768 301 l 1
 863 285 l 1
 826 0 l 1
 45 0 l 1
 37 104 l 1
EndSplineSet
Colour: ffffff
EndChar

StartChar: zero
Encoding: 48 48 207
Width: 974
VWidth: 0
Flags: HMW
LayerCount: 2
Back
SplineSet
317 411 m 0
 317 292 335 205 370 152 c 0
 405 99 451 73 510 73 c 0
 551 73 593 82 631 102 c 0
 669 122 703 158 733 208 c 0
 763 258 785 324 803 410 c 0
 821 496 829 603 829 733 c 0
 829 840 814 925 784 984 c 0
 754 1043 710 1075 649 1075 c 0
 601 1075 558 1063 522 1042 c 0
 486 1021 458 991 433 955 c 0
 408 919 388 878 373 832 c 0
 358 786 345 737 337 687 c 0
 329 637 323 590 320 542 c 0
 317 494 317 451 317 411 c 0
991 699 m 0
 991 580 976 476 945 385 c 0
 914 294 874 220 826 159 c 0
 778 98 726 51 667 20 c 0
 608 -11 549 -26 495 -26 c 0
 447 -26 403 -17 362 3 c 0
 321 23 284 52 253 92 c 0
 222 132 198 180 180 239 c 0
 162 298 154 369 154 448 c 0
 154 557 168 656 198 745 c 0
 228 834 266 911 314 974 c 0
 362 1037 417 1085 476 1120 c 0
 535 1155 598 1173 659 1173 c 0
 710 1173 755 1161 796 1140 c 0
 837 1119 872 1086 902 1045 c 0
 932 1004 953 955 968 897 c 0
 983 839 991 773 991 699 c 0
EndSplineSet
Fore
SplineSet
297 492 m 0
 297 133 389 71 488 71 c 0
 587 71 677 130 677 487 c 0
 677 842 586 900 487 900 c 0
 388 900 297 849 297 492 c 0
99 482 m 0
 99 746 265 987 488 985 c 0
 732 982 875 772 875 492 c 0
 875 160 680 -23 487 -23 c 0
 285 -23 99 147 99 482 c 0
EndSplineSet
Colour: ffffff
EndChar

StartChar: micro
Encoding: 181 181 208
Width: 1008
VWidth: 0
Flags: HMW
LayerCount: 2
Back
SplineSet
372 1480 m 1
 813 1480 l 1
 783 1379 l 1
 342 1379 l 1
 372 1480 l 1
545 1239 m 0
EndSplineSet
Fore
SplineSet
28 790 m 1
 40 870 l 1
 309 892 l 1
 334 866 l 1
 334 314 l 2
 334 163 397 105 487 105 c 0
 577 105 625 148 675 188 c 1
 675 731 l 1
 513 773 l 1
 523 863 l 1
 818 892 l 1
 839 866 l 1
 839 213 l 2
 839 108 882 102 948 87 c 2
 993 77 l 1
 985 -6 l 1
 923 -21 891 -24 832 -24 c 0
 732 -24 686 38 686 121 c 2
 686 129 l 1
 675 129 l 1
 585 29 500 -24 387 -24 c 0
 325 -24 277 -3 246 37 c 1
 239 37 l 1
 242 19 249 -22 253 -86 c 2
 271 -388 l 1
 138 -362 l 1
 139 -335 165 202 165 494 c 2
 165 736 l 1
 28 790 l 1
EndSplineSet
Colour: ffffff
EndChar

StartChar: germandbls.alt
Encoding: 65537 -1 209
Width: 1063
VWidth: 1691
Flags: HMW
LayerCount: 2
Back
SplineSet
736 843 m 0
 845.623 843 892.478 731.873 919 634 c 1
 992 657.913 1032 688.348 1032 759 c 0
 1032 912.462 793.177 949 643 949 c 0
 340.972 949 142 830 142 548 c 6
 142 110 l 5
 8 73 l 5
 0 0 l 5
 331 0 l 5
 331 571 l 6
 331 780.295 409.525 872.121 584.171 872.121 c 0
 597.781 872.121 612.054 871.408 627 870 c 1
 625 867 l 0
 548 854.502 457 757.645 457 641 c 0
 457 371 900 347 900 179 c 0
 900 106 824 75 763 75 c 0
 661 75 628 101 587 144 c 1
 568 295 l 1
 466 309 l 1
 433 59 l 1
 487 7 583 -24 749 -24 c 0
 916 -24 1074 81 1074 244 c 0
 1074 495 615 514 615 724 c 0
 615 809 674.901 843 736 843 c 0
EndSplineSet
Fore
SplineSet
0 0 m 1
 8 73 l 1
 142 110 l 1
 142 548 l 2
 142 830 321 949 593 949 c 0
 749 949 917 935 992 921 c 1
 993 847 l 1
 739 560 l 1
 944 445 1069 397 1069 230 c 0
 1069 76 905 -24 739 -24 c 0
 578 -24 485 7 433 59 c 1
 466 309 l 1
 568 295 l 1
 587 144 l 1
 626 101 657 75 753 75 c 0
 850 75 905 116 905 185 c 0
 905 283 740 352 540 461 c 1
 517 509 l 1
 805 823 l 1
 805 828 l 1
 707 871 620 872 534 872 c 0
 394 872 331 780 331 571 c 2
 331 0 l 1
 0 0 l 1
EndSplineSet
Colour: ffffff
EndChar
